<svg width="25" height="24" viewBox="0 0 25 24" fill="none" xmlns="http://www.w3.org/2000/svg">
<path d="M6.5 11.0002V6.2002C6.5 5.08009 6.5 4.51962 6.71799 4.0918C6.90973 3.71547 7.21547 3.40973 7.5918 3.21799C8.01962 3 8.58009 3 9.7002 3H14.1747C14.2973 3 14.4045 3 14.5 3.00087M20.4991 9C20.5 9.09561 20.5 9.20296 20.5 9.32568V17.8036C20.5 18.9215 20.5 19.4805 20.2822 19.9079C20.0905 20.2842 19.7839 20.5905 19.4076 20.7822C18.9802 21 18.421 21 17.3031 21L13.5 21M20.4991 9C20.4963 8.71451 20.4857 8.53376 20.4443 8.36133C20.3953 8.15726 20.3142 7.96214 20.2046 7.7832C20.0809 7.58136 19.9089 7.40889 19.563 7.06298L16.4375 3.9375C16.0918 3.59182 15.9186 3.41857 15.7168 3.29492C15.5379 3.18526 15.3429 3.10425 15.1388 3.05526C14.9663 3.01385 14.7856 3.00347 14.5 3.00087M20.4991 9H20.5002M20.4991 9H17.6969C16.579 9 16.0192 9 15.5918 8.78223C15.2155 8.59048 14.9097 8.28392 14.718 7.90759C14.5 7.47977 14.5 6.9201 14.5 5.8V3.00087M9.5 14L11.5 16M4.5 21V18.5L12 11L14.5 13.5L7 21H4.5Z" stroke="white" stroke-width="2" stroke-linecap="round" stroke-linejoin="round"/>
</svg>
