<svg width="64" height="64" viewBox="0 0 64 64" fill="none" xmlns="http://www.w3.org/2000/svg">
<path d="M30.6667 39.9999C28.4575 39.9999 26.6667 38.2091 26.6667 35.9999C26.6667 33.7908 28.4575 31.9999 30.6667 31.9999M8 42.1338V21.8671C8 18.8802 8 17.3856 8.5813 16.2447C9.09262 15.2412 9.90793 14.4259 10.9115 13.9146C12.0523 13.3333 13.5469 13.3333 16.5339 13.3333H47.4672C50.4541 13.3333 51.9455 13.3333 53.0864 13.9146C54.0899 14.4259 54.908 15.2412 55.4193 16.2447C56 17.3845 56 18.8772 56 21.8583V42.1428C56 45.1239 56 46.6145 55.4193 47.7543C54.908 48.7578 54.0899 49.5745 53.0864 50.0859C51.9466 50.6666 50.456 50.6666 47.4749 50.6666H16.5251C13.544 50.6666 12.0512 50.6666 10.9115 50.0859C9.90793 49.5745 9.09262 48.7578 8.5813 47.7543C8 46.6134 8 45.1207 8 42.1338ZM45.3333 35.9999C45.3333 38.2091 43.5425 39.9999 41.3333 39.9999C39.1242 39.9999 37.3333 38.2091 37.3333 35.9999C37.3333 33.7908 39.1242 31.9999 41.3333 31.9999C43.5425 31.9999 45.3333 33.7908 45.3333 35.9999Z" stroke="#E94560" stroke-width="3" stroke-linecap="round" stroke-linejoin="round"/>
</svg>
