<svg width="25" height="24" viewBox="0 0 25 24" fill="none" xmlns="http://www.w3.org/2000/svg">
<path d="M12.5 5.5V8M12.5 5.5C12.5 4.11929 13.6193 3 15 3C16.3807 3 17.5 4.11929 17.5 5.5C17.5 6.88071 16.3807 8 15 8M12.5 5.5C12.5 4.11929 11.3807 3 10 3C8.61929 3 7.5 4.11929 7.5 5.5C7.5 6.88071 8.61929 8 10 8M12.5 8H15M12.5 8H10M12.5 8V14M15 8H18.3002C19.4203 8 19.9796 8 20.4074 8.21799C20.7837 8.40973 21.0905 8.71547 21.2822 9.0918C21.5 9.5192 21.5 10.079 21.5 11.1969V14M10 8H6.7002C5.58009 8 5.01962 8 4.5918 8.21799C4.21547 8.40973 3.90973 8.71547 3.71799 9.0918C3.5 9.51962 3.5 10.0801 3.5 11.2002V14M3.5 14V16.8002C3.5 17.9203 3.5 18.4801 3.71799 18.9079C3.90973 19.2842 4.21547 19.5905 4.5918 19.7822C5.0192 20 5.57899 20 6.69691 20H12.5M3.5 14H12.5M12.5 14V20M12.5 14H21.5M12.5 20H18.3031C19.421 20 19.98 20 20.4074 19.7822C20.7837 19.5905 21.0905 19.2842 21.2822 18.9079C21.5 18.4805 21.5 17.9215 21.5 16.8036V14" stroke="white" stroke-width="2" stroke-linecap="round" stroke-linejoin="round"/>
</svg>
