<svg width="25" height="24" viewBox="0 0 25 24" fill="none" xmlns="http://www.w3.org/2000/svg">
<path d="M17.5 18C17.5 18.5523 17.9477 19 18.5 19C19.0523 19 19.5 18.5523 19.5 18C19.5 17.4477 19.0523 17 18.5 17C17.9477 17 17.5 17.4477 17.5 18Z" stroke="white" stroke-width="2" stroke-linecap="round" stroke-linejoin="round"/>
<path d="M11.5 18C11.5 18.5523 11.9477 19 12.5 19C13.0523 19 13.5 18.5523 13.5 18C13.5 17.4477 13.0523 17 12.5 17C11.9477 17 11.5 17.4477 11.5 18Z" stroke="white" stroke-width="2" stroke-linecap="round" stroke-linejoin="round"/>
<path d="M5.5 18C5.5 18.5523 5.94772 19 6.5 19C7.05228 19 7.5 18.5523 7.5 18C7.5 17.4477 7.05228 17 6.5 17C5.94772 17 5.5 17.4477 5.5 18Z" stroke="white" stroke-width="2" stroke-linecap="round" stroke-linejoin="round"/>
<path d="M17.5 12C17.5 12.5523 17.9477 13 18.5 13C19.0523 13 19.5 12.5523 19.5 12C19.5 11.4477 19.0523 11 18.5 11C17.9477 11 17.5 11.4477 17.5 12Z" stroke="white" stroke-width="2" stroke-linecap="round" stroke-linejoin="round"/>
<path d="M11.5 12C11.5 12.5523 11.9477 13 12.5 13C13.0523 13 13.5 12.5523 13.5 12C13.5 11.4477 13.0523 11 12.5 11C11.9477 11 11.5 11.4477 11.5 12Z" stroke="white" stroke-width="2" stroke-linecap="round" stroke-linejoin="round"/>
<path d="M5.5 12C5.5 12.5523 5.94772 13 6.5 13C7.05228 13 7.5 12.5523 7.5 12C7.5 11.4477 7.05228 11 6.5 11C5.94772 11 5.5 11.4477 5.5 12Z" stroke="white" stroke-width="2" stroke-linecap="round" stroke-linejoin="round"/>
<path d="M17.5 6C17.5 6.55228 17.9477 7 18.5 7C19.0523 7 19.5 6.55228 19.5 6C19.5 5.44772 19.0523 5 18.5 5C17.9477 5 17.5 5.44772 17.5 6Z" stroke="white" stroke-width="2" stroke-linecap="round" stroke-linejoin="round"/>
<path d="M11.5 6C11.5 6.55228 11.9477 7 12.5 7C13.0523 7 13.5 6.55228 13.5 6C13.5 5.44772 13.0523 5 12.5 5C11.9477 5 11.5 5.44772 11.5 6Z" stroke="white" stroke-width="2" stroke-linecap="round" stroke-linejoin="round"/>
<path d="M5.5 6C5.5 6.55228 5.94772 7 6.5 7C7.05228 7 7.5 6.55228 7.5 6C7.5 5.44772 7.05228 5 6.5 5C5.94772 5 5.5 5.44772 5.5 6Z" stroke="white" stroke-width="2" stroke-linecap="round" stroke-linejoin="round"/>
</svg>
