<svg width="154" height="70" viewBox="0 0 154 70" fill="none" xmlns="http://www.w3.org/2000/svg">
<path d="M9.408 8.72021C9.664 8.72021 9.968 8.73621 10.32 8.76821C10.672 8.76821 10.976 8.80021 11.232 8.86421V12.9922C10.848 12.9282 10.448 12.8802 10.032 12.8482C9.648 12.7842 9.264 12.7522 8.88 12.7522C7.952 12.7522 7.184 12.9122 6.576 13.2322C5.968 13.5202 5.488 13.9522 5.136 14.5282C4.816 15.0722 4.592 15.7442 4.464 16.5442C4.336 17.3442 4.272 18.2242 4.272 19.1842V30.4162H0V9.00822H4.032V15.2962L3.408 14.0002C3.504 13.4882 3.664 12.9282 3.888 12.3202C4.144 11.7122 4.496 11.1522 4.944 10.6402C5.424 10.0962 6.016 9.64821 6.72 9.29621C7.456 8.91221 8.352 8.72021 9.408 8.72021Z" fill="white"/>
<path d="M23.4221 30.4051C22.2701 30.4051 21.2141 30.2291 20.2541 29.8771C19.3261 29.4931 18.5261 28.9171 17.8541 28.1491C17.1821 27.3811 16.6541 26.4211 16.2701 25.2691C15.8861 24.1171 15.6941 22.7571 15.6941 21.1891V8.66113H19.9661V20.2291C19.9661 22.3731 20.3341 23.9571 21.0701 24.9811C21.8061 25.9731 22.9261 26.4691 24.4301 26.4691C25.3261 26.4691 26.1261 26.3091 26.8301 25.9891C27.5341 25.6371 28.1261 25.1571 28.6061 24.5491C29.0861 23.9411 29.4541 23.2211 29.7101 22.3891C29.9661 21.5571 30.0941 20.6291 30.0941 19.6051V8.66113H34.3661L34.2949 44.4898H30.0229L30.3341 23.8291L30.9101 25.1251C30.7181 25.8291 30.4141 26.5011 29.9981 27.1411C29.6141 27.7811 29.1021 28.3411 28.4621 28.8211C27.8221 29.3011 27.0701 29.6851 26.2061 29.9731C25.3741 30.2611 24.4461 30.4051 23.4221 30.4051Z" fill="white"/>
<path d="M41.1094 30.3571V8.94913H45.1414V14.9011L45.3814 15.2371V30.3571H41.1094ZM55.9414 18.2611C55.9414 17.2691 55.8134 16.4211 55.5574 15.7171C55.3014 15.0131 54.9494 14.4371 54.5014 13.9891C54.0534 13.5411 53.5254 13.2051 52.9174 12.9811C52.3094 12.7571 51.6694 12.6451 50.9974 12.6451C50.1334 12.6451 49.3494 12.8211 48.6454 13.1731C47.9734 13.5251 47.3814 14.0051 46.8694 14.6131C46.3894 15.2211 46.0214 15.9411 45.7654 16.7731C45.5094 17.6051 45.3814 18.5011 45.3814 19.4611H44.3734V14.6131C44.5014 13.8451 44.7734 13.1091 45.1894 12.4051C45.6374 11.7011 46.1974 11.0771 46.8694 10.5331C47.5414 9.95713 48.3414 9.50913 49.2694 9.18913C50.1974 8.83713 51.1894 8.66113 52.2454 8.66113C53.4294 8.66113 54.5014 8.85313 55.4614 9.23713C56.4214 9.62113 57.2534 10.1811 57.9574 10.9171C58.6614 11.6531 59.2054 12.5491 59.5894 13.6051C60.0054 14.6611 60.2134 15.8611 60.2134 17.2051V30.3571H55.9414V18.2611Z" fill="white"/>
<path d="M19.248 58.2597V52.9317L19.008 52.2117V43.1397L19.248 42.8037V36.8517H23.328V58.2597H19.248ZM11.712 58.6437C10.368 58.6437 9.072 58.3877 7.824 57.8757C6.576 57.3637 5.488 56.6277 4.56 55.6677C3.632 54.7077 2.88 53.5397 2.304 52.1637C1.76 50.7877 1.488 49.2517 1.488 47.5557C1.488 45.8597 1.744 44.3397 2.256 42.9957C2.8 41.6197 3.536 40.4517 4.464 39.4917C5.424 38.5317 6.512 37.7957 7.728 37.2837C8.976 36.7397 10.304 36.4677 11.712 36.4677C12.864 36.4677 13.904 36.6277 14.832 36.9477C15.792 37.2357 16.624 37.6357 17.328 38.1477C18.032 38.6597 18.592 39.2357 19.008 39.8757C19.456 40.4837 19.712 41.1077 19.776 41.7477V47.2197H19.008C19.008 46.3237 18.864 45.4597 18.576 44.6277C18.288 43.7637 17.872 43.0277 17.328 42.4197C16.784 41.8117 16.096 41.3157 15.264 40.9317C14.464 40.5477 13.552 40.3557 12.528 40.3557C11.6 40.3557 10.736 40.5157 9.936 40.8357C9.136 41.1237 8.432 41.5717 7.824 42.1797C7.248 42.7877 6.784 43.5397 6.432 44.4357C6.112 45.3317 5.952 46.3557 5.952 47.5077C5.952 48.5957 6.112 49.5877 6.432 50.4837C6.752 51.3797 7.2 52.1477 7.776 52.7877C8.352 53.4277 9.04 53.9237 9.84 54.2757C10.64 54.6277 11.504 54.8037 12.432 54.8037C13.488 54.8037 14.416 54.6117 15.216 54.2277C16.048 53.8117 16.736 53.2837 17.28 52.6437C17.824 51.9717 18.24 51.2037 18.528 50.3397C18.848 49.4757 19.008 48.5957 19.008 47.6997H20.016V52.7877C19.856 53.5877 19.52 54.3397 19.008 55.0437C18.528 55.7477 17.92 56.3717 17.184 56.9157C16.48 57.4277 15.648 57.8437 14.688 58.1637C13.76 58.4837 12.768 58.6437 11.712 58.6437Z" fill="white"/>
<path d="M30.0229 58.2597V44.4898H34.2949V58.2597H30.0229Z" fill="white"/>
<path d="M50.3996 36.5637C50.6556 36.5637 50.9596 36.5797 51.3116 36.6117C51.6636 36.6117 51.9676 36.6437 52.2236 36.7077V40.8357C51.8396 40.7717 51.4396 40.7237 51.0236 40.6917C50.6396 40.6277 50.2556 40.5957 49.8716 40.5957C48.9436 40.5957 48.1756 40.7557 47.5676 41.0757C46.9596 41.3637 46.4796 41.7957 46.1276 42.3717C45.8076 42.9157 45.5836 43.5877 45.4556 44.3877C45.3276 45.1877 45.2636 46.0677 45.2636 47.0277V58.2597H40.9916V36.8517H45.0236V43.1397L44.3996 41.8437C44.4956 41.3317 44.6556 40.7717 44.8796 40.1637C45.1356 39.5557 45.4876 38.9957 45.9356 38.4837C46.4156 37.9397 47.0076 37.4917 47.7116 37.1397C48.4476 36.7557 49.3436 36.5637 50.3996 36.5637Z" fill="white"/>
<path d="M66.1575 58.6437C64.5255 58.6437 63.0215 58.3877 61.6455 57.8757C60.3015 57.3317 59.1175 56.5797 58.0935 55.6197C57.1015 54.6597 56.3175 53.5077 55.7415 52.1637C55.1975 50.8197 54.9255 49.2997 54.9255 47.6037C54.9255 45.8437 55.2135 44.2757 55.7895 42.8997C56.3975 41.5237 57.2135 40.3717 58.2375 39.4437C59.2615 38.4837 60.4295 37.7477 61.7415 37.2357C63.0855 36.7237 64.4935 36.4677 65.9655 36.4677C67.6295 36.4677 69.1015 36.7717 70.3815 37.3797C71.6935 37.9557 72.7975 38.7557 73.6935 39.7797C74.5895 40.7717 75.2615 41.9237 75.7095 43.2357C76.1895 44.5157 76.4295 45.8597 76.4295 47.2677V48.4677H57.5655V45.2997H74.7495L72.2535 47.8437V46.5477C72.2535 45.6517 72.0935 44.8197 71.7735 44.0517C71.4535 43.2837 70.9895 42.6117 70.3815 42.0357C69.8055 41.4597 69.1175 41.0117 68.3175 40.6917C67.5175 40.3397 66.6375 40.1637 65.6775 40.1637C64.7495 40.1637 63.8695 40.3397 63.0375 40.6917C62.2375 41.0117 61.5495 41.4917 60.9735 42.1317C60.3975 42.7717 59.9335 43.5397 59.5815 44.4357C59.2615 45.3317 59.1015 46.3397 59.1015 47.4597C59.1015 48.6117 59.2775 49.6517 59.6295 50.5797C60.0135 51.5077 60.5255 52.3077 61.1655 52.9797C61.8375 53.6197 62.6215 54.1157 63.5175 54.4677C64.4135 54.8197 65.3895 54.9957 66.4455 54.9957C67.7895 54.9957 69.0215 54.7397 70.1415 54.2277C71.2935 53.7157 72.2375 53.0117 72.9735 52.1157L75.5655 54.5157C74.5095 55.8917 73.1495 56.9317 71.4855 57.6357C69.8215 58.3077 68.0455 58.6437 66.1575 58.6437Z" fill="white"/>
<path d="M97.9043 58.2597V52.9317L97.6643 52.2117V43.1397L97.9043 42.8037V36.8517H101.984V58.2597H97.9043ZM90.3682 58.6437C89.0242 58.6437 87.7282 58.3877 86.4802 57.8757C85.2322 57.3637 84.1442 56.6277 83.2162 55.6677C82.2882 54.7077 81.5363 53.5397 80.9603 52.1637C80.4163 50.7877 80.1442 49.2517 80.1442 47.5557C80.1442 45.8597 80.4002 44.3397 80.9122 42.9957C81.4562 41.6197 82.1922 40.4517 83.1202 39.4917C84.0802 38.5317 85.1682 37.7957 86.3842 37.2837C87.6322 36.7397 88.9602 36.4677 90.3682 36.4677C91.5202 36.4677 92.5603 36.6277 93.4883 36.9477C94.4483 37.2357 95.2803 37.6357 95.9843 38.1477C96.6883 38.6597 97.2483 39.2357 97.6643 39.8757C98.1123 40.4837 98.3683 41.1077 98.4323 41.7477V47.2197H97.6643C97.6643 46.3237 97.5202 45.4597 97.2322 44.6277C96.9442 43.7637 96.5283 43.0277 95.9843 42.4197C95.4403 41.8117 94.7523 41.3157 93.9202 40.9317C93.1203 40.5477 92.2083 40.3557 91.1842 40.3557C90.2562 40.3557 89.3922 40.5157 88.5922 40.8357C87.7922 41.1237 87.0882 41.5717 86.4802 42.1797C85.9042 42.7877 85.4402 43.5397 85.0882 44.4357C84.7682 45.3317 84.6082 46.3557 84.6082 47.5077C84.6082 48.5957 84.7682 49.5877 85.0882 50.4837C85.4082 51.3797 85.8563 52.1477 86.4323 52.7877C87.0083 53.4277 87.6962 53.9237 88.4962 54.2757C89.2962 54.6277 90.1602 54.8037 91.0882 54.8037C92.1442 54.8037 93.0723 54.6117 93.8723 54.2277C94.7043 53.8117 95.3922 53.2837 95.9362 52.6437C96.4802 51.9717 96.8962 51.2037 97.1842 50.3397C97.5042 49.4757 97.6643 48.5957 97.6643 47.6997H98.6722V52.7877C98.5122 53.5877 98.1763 54.3397 97.6643 55.0437C97.1843 55.7477 96.5762 56.3717 95.8402 56.9157C95.1362 57.4277 94.3042 57.8437 93.3442 58.1637C92.4162 58.4837 91.4242 58.6437 90.3682 58.6437Z" fill="white"/>
<path d="M124.951 58.2597V52.9317L124.711 52.2117V29.2202V24.6597H129.031V58.2597H124.951ZM117.415 58.6437C116.071 58.6437 114.775 58.3877 113.527 57.8757C112.279 57.3637 111.191 56.6277 110.263 55.6677C109.335 54.7077 108.583 53.5397 108.007 52.1637C107.463 50.7877 107.191 49.2517 107.191 47.5557C107.191 45.8597 107.447 44.3397 107.959 42.9957C108.503 41.6197 109.239 40.4517 110.167 39.4917C111.127 38.5317 112.215 37.7957 113.431 37.2837C114.679 36.7397 116.007 36.4677 117.415 36.4677C118.567 36.4677 119.607 36.6277 120.535 36.9477C121.495 37.2357 122.327 37.6357 123.031 38.1477C123.735 38.6597 124.295 39.2357 124.711 39.8757C125.159 40.4837 125.415 41.1077 125.479 41.7477V47.2197H124.711C124.711 46.3237 124.567 45.4597 124.279 44.6277C123.991 43.7637 123.575 43.0277 123.031 42.4197C122.487 41.8117 121.799 41.3157 120.967 40.9317C120.167 40.5477 119.255 40.3557 118.231 40.3557C117.303 40.3557 116.439 40.5157 115.639 40.8357C114.839 41.1237 114.135 41.5717 113.527 42.1797C112.951 42.7877 112.487 43.5397 112.135 44.4357C111.815 45.3317 111.655 46.3557 111.655 47.5077C111.655 48.5957 111.815 49.5877 112.135 50.4837C112.455 51.3797 112.903 52.1477 113.479 52.7877C114.055 53.4277 114.743 53.9237 115.543 54.2757C116.343 54.6277 117.207 54.8037 118.135 54.8037C119.191 54.8037 120.119 54.6117 120.919 54.2277C121.751 53.8117 122.439 53.2837 122.983 52.6437C123.527 51.9717 123.943 51.2037 124.231 50.3397C124.551 49.4757 124.711 48.5957 124.711 47.6997H125.719V52.7877C125.559 53.5877 125.223 54.3397 124.711 55.0437C124.231 55.7477 123.623 56.3717 122.887 56.9157C122.183 57.4277 121.351 57.8437 120.391 58.1637C119.463 58.4837 118.471 58.6437 117.415 58.6437Z" fill="white"/>
<path d="M137.646 69.7797V69.2037L149.598 36.8517H153.63L153.582 37.5717L141.678 69.7797H137.646ZM142.206 59.2197L132.942 37.5717V36.8517H137.31L144.414 53.9397L142.206 59.2197Z" fill="white"/>
<path d="M124.711 29.2202V24.6597H64V29.2202H124.711Z" fill="white"/>
<path d="M74.8299 9.01007L73 9.6761V13.2202H71V8.27022H71.015L76.2834 6.35268C76.5274 6.25876 76.7922 6.21183 77.0648 6.22101C78.1762 6.24834 79.1522 6.97689 79.4917 8.04058C79.678 8.62453 79.848 9.01857 80.0015 9.22271C80.9138 10.4357 82.3653 11.2202 84 11.2202V13.2202C81.8253 13.2202 79.8823 12.2285 78.5984 10.6728L77.9008 14.6287L80 16.3902V23.2202H78V17.3227L75.7307 15.4186L75.003 19.5455L68.1094 18.33L68.4567 16.3603L73.3807 17.2286L74.8299 9.01007ZM78.5 5.72021C77.3954 5.72021 76.5 4.82478 76.5 3.72021C76.5 2.61564 77.3954 1.72021 78.5 1.72021C79.6046 1.72021 80.5 2.61564 80.5 3.72021C80.5 4.82478 79.6046 5.72021 78.5 5.72021Z" fill="white"/>
</svg>
