<svg width="25" height="24" viewBox="0 0 25 24" fill="none" xmlns="http://www.w3.org/2000/svg">
<path d="M20.0459 12C20.0459 7.58172 16.4642 4 12.0459 4C7.62762 4 4.0459 7.58172 4.0459 12C4.0459 16.4183 7.62762 20 12.0459 20C13.6877 20 15.214 19.5054 16.484 18.6571L17.5935 20.3214C16.0061 21.3818 14.0982 22 12.0459 22C6.52305 22 2.0459 17.5228 2.0459 12C2.0459 6.47715 6.52305 2 12.0459 2C17.5687 2 22.0459 6.47715 22.0459 12V13.5C22.0459 15.433 20.4789 17 18.5459 17C17.3417 17 16.2795 16.3918 15.6497 15.4659C14.7401 16.4115 13.4617 17 12.0459 17C9.28448 17 7.0459 14.7614 7.0459 12C7.0459 9.23858 9.28448 7 12.0459 7C13.1717 7 14.2106 7.37209 15.0464 8H17.0459V13.5C17.0459 14.3284 17.7175 15 18.5459 15C19.3743 15 20.0459 14.3284 20.0459 13.5V12ZM12.0459 9C10.389 9 9.0459 10.3431 9.0459 12C9.0459 13.6569 10.389 15 12.0459 15C13.7028 15 15.0459 13.6569 15.0459 12C15.0459 10.3431 13.7028 9 12.0459 9Z" fill="#FFA200"/>
</svg>
