<svg width="128" height="128" viewBox="0 0 128 128" fill="none" xmlns="http://www.w3.org/2000/svg">
<g clip-path="url(#clip0_111_609)">
<path d="M120.778 0.125488L110.131 115.454L63.9997 127.875L17.8679 115.454L7.22266 0.125488H120.778ZM99.3229 23.5757H63.9582H27.9669L29.6882 37.5027H63.9582H65.8832L63.9582 38.304L30.9407 52.0555L32.0357 65.6687L63.9582 65.7722L81.0677 65.8265L79.9724 83.978L63.9579 88.4867V88.4725L63.8267 88.509L48.3607 84.6047L47.4222 73.3372H47.3709H33.0254H32.9749L34.8527 95.089L63.9584 103.696V103.681L64.0109 103.696L92.9607 95.2457L96.7159 52.0555H63.9584H63.8777L63.9584 52.0205L97.9159 37.5027L99.3229 23.5757Z" fill="#FFEA00" stroke="#FFEA00"/>
</g>
<defs>
<clipPath id="clip0_111_609">
<rect width="128" height="128" fill="white"/>
</clipPath>
</defs>
</svg>
