<svg width="128" height="128" viewBox="0 0 128 128" fill="none" xmlns="http://www.w3.org/2000/svg">
<path d="M93.3076 47.0002C96.9039 44.4003 99.5837 40.7274 100.962 36.5092C102.34 32.291 102.346 27.7444 100.979 23.5227C99.6114 19.3009 96.9411 15.6211 93.3515 13.0119C89.7619 10.4027 85.4377 8.99831 81 9.00049H47C42.5623 8.99831 38.2381 10.4027 34.6485 13.0119C31.0589 15.6211 28.3886 19.3009 27.0213 23.5227C25.6539 27.7444 25.6598 32.291 27.038 36.5092C28.4163 40.7274 31.0961 44.4003 34.6924 47.0002C32.0014 48.9436 29.8103 51.4981 28.2991 54.4535C26.7879 57.4089 26 60.6808 26 64.0001C26 67.3195 26.788 70.5914 28.2992 73.5468C29.8104 76.5022 32.0016 79.0566 34.6926 80.9999C31.7817 83.1076 29.4606 85.9272 27.9515 89.1889C26.4424 92.4505 25.7958 96.0449 26.0736 99.628C26.3515 103.211 27.5444 106.663 29.5383 109.653C31.5322 112.643 34.2602 115.071 37.4612 116.705C40.6622 118.338 44.229 119.123 47.8201 118.984C51.4112 118.844 54.9064 117.785 57.9711 115.908C61.0357 114.031 63.5672 111.399 65.3232 108.263C67.0792 105.127 68.0009 101.594 68 97.9997V80.474C70.192 82.2064 72.7078 83.4837 75.4 84.231C78.0921 84.9783 80.9064 85.1805 83.6777 84.8258C86.4491 84.4711 89.1217 83.5666 91.5388 82.1653C93.956 80.764 96.069 78.8942 97.754 76.6656C99.4389 74.4369 100.662 71.8942 101.351 69.1866C102.041 66.4791 102.182 63.6611 101.768 60.898C101.354 58.1349 100.392 55.4824 98.9395 53.0959C97.4867 50.7094 95.572 48.637 93.3076 47.0002ZM94 30.0005C93.9961 33.4454 92.6265 36.7482 90.1915 39.185C87.7565 41.6218 84.4547 42.9938 81.0098 43.0002L81 43L80.9807 43.0005L68 43V17.0005H81C84.4466 17.0044 87.751 18.3753 90.1881 20.8124C92.6252 23.2495 93.9961 26.5539 94 30.0005ZM81 77C77.5545 76.9991 74.2502 75.6304 71.8133 73.1947C69.3764 70.759 68.0061 67.4554 68.0035 64.0099C68.001 60.5644 69.3664 57.2588 71.7997 54.8194C74.233 52.38 77.5352 51.0065 80.9807 51.0005H81L81.0095 51.0002C84.455 51.005 87.7577 52.3774 90.1919 54.8158C92.6261 57.2543 93.9928 60.5594 93.9915 64.0049C93.9902 67.4504 92.6212 70.7544 90.1852 73.1911C87.7492 75.6278 84.4455 76.9978 81 77Z" fill="#FFEA00" stroke="#FFEA00"/>
</svg>
