<svg width="128" height="128" viewBox="0 0 128 128" fill="none" xmlns="http://www.w3.org/2000/svg">
<g clip-path="url(#clip0_111_634)">
<path fill-rule="evenodd" clip-rule="evenodd" d="M64 0C99.3472 0 128 29.3755 128 65.6188C128 94.6043 109.683 119.193 84.2688 127.878C81.024 128.525 79.872 126.475 79.872 124.728C79.872 122.565 79.9488 115.5 79.9488 106.719C79.9488 100.6 77.9008 96.6071 75.6032 94.5719C89.856 92.9463 104.832 87.3969 104.832 62.1938C104.832 55.0257 102.349 49.1764 98.24 44.5812C98.9056 42.9236 101.101 36.2493 97.6128 27.2125C97.6128 27.2125 92.2496 25.4542 80.032 33.9406C74.9184 32.4878 69.44 31.7569 64 31.7313C58.56 31.7569 53.088 32.4878 47.9808 33.9406C35.7504 25.4542 30.3744 27.2125 30.3744 27.2125C26.8992 36.2493 29.0944 42.9236 29.7536 44.5812C25.664 49.1764 23.1616 55.0257 23.1616 62.1938C23.1616 87.333 38.1056 92.9674 52.32 94.625C50.4896 96.2634 48.832 99.1537 48.256 103.397C44.608 105.074 35.3408 107.976 29.632 97.9469C29.632 97.9469 26.2464 91.6421 19.8208 91.1813C19.8208 91.1813 13.5808 91.0984 19.3856 95.1688C19.3856 95.1688 23.5776 97.1848 26.4896 104.769C26.4896 104.769 30.2464 116.48 48.0512 112.513C48.0832 117.997 48.1408 123.167 48.1408 124.728C48.1408 126.463 46.9632 128.492 43.7696 127.884C18.336 119.212 0 94.6108 0 65.6188C0 29.3755 28.6592 0 64 0Z" fill="#FFEA00"/>
</g>
<defs>
<clipPath id="clip0_111_634">
<rect width="128" height="128" fill="white"/>
</clipPath>
</defs>
</svg>
