<svg width="25" height="24" viewBox="0 0 25 24" fill="none" xmlns="http://www.w3.org/2000/svg">
<path d="M12.0469 2C6.52188 2 2.04688 6.475 2.04688 12C2.04688 16.425 4.90938 20.1625 8.88438 21.4875C9.38438 21.575 9.57188 21.275 9.57188 21.0125C9.57188 20.775 9.55938 19.9875 9.55938 19.15C7.04688 19.6125 6.39687 18.5375 6.19688 17.975C6.08437 17.6875 5.59687 16.8 5.17188 16.5625C4.82188 16.375 4.32188 15.9125 5.15938 15.9C5.94688 15.8875 6.50938 16.625 6.69688 16.925C7.59688 18.4375 9.03438 18.0125 9.60938 17.75C9.69688 17.1 9.95937 16.6625 10.2469 16.4125C8.02187 16.1625 5.69688 15.3 5.69688 11.475C5.69688 10.3875 6.08438 9.4875 6.72188 8.7875C6.62188 8.5375 6.27187 7.5125 6.82188 6.1375C6.82188 6.1375 7.65938 5.875 9.57188 7.1625C10.3719 6.9375 11.2219 6.825 12.0719 6.825C12.9219 6.825 13.7719 6.9375 14.5719 7.1625C16.4844 5.8625 17.3219 6.1375 17.3219 6.1375C17.8719 7.5125 17.5219 8.5375 17.4219 8.7875C18.0594 9.4875 18.4469 10.375 18.4469 11.475C18.4469 15.3125 16.1094 16.1625 13.8844 16.4125C14.2469 16.725 14.5594 17.325 14.5594 18.2625C14.5594 19.6 14.5469 20.675 14.5469 21.0125C14.5469 21.275 14.7344 21.5875 15.2344 21.4875C19.3049 20.1133 22.0458 16.2963 22.0469 12C22.0469 6.475 17.5719 2 12.0469 2Z" fill="#FFA200"/>
</svg>
