<svg width="128" height="128" viewBox="0 0 128 128" fill="none" xmlns="http://www.w3.org/2000/svg">
<g clip-path="url(#clip0_111_613)">
<path fill-rule="evenodd" clip-rule="evenodd" d="M0.252102 0.125C0.109602 0.14575 0.120102 0.3175 0.130352 0.4895C0.130352 42.9065 0.130352 85.317 0.130352 127.733C42.4714 128.017 85.3324 127.773 127.875 127.854C127.875 85.2773 127.875 42.702 127.875 0.125C85.3356 0.125 42.7919 0.125 0.252102 0.125ZM64.9734 113.042C62.0178 116.021 57.3539 117.776 51.6161 117.776C42.2054 117.776 36.9804 113.191 33.6451 106.849C36.8556 104.799 40.1366 102.818 43.4811 100.9C44.8451 104.715 49.4526 109.005 54.6519 106.364C57.9476 104.689 57.5671 99.6115 57.5671 94.1005C57.5671 82.6572 57.5671 69.456 57.5671 59.1325C57.5566 58.9605 57.5464 58.7887 57.6876 58.768C61.6144 58.768 65.5408 58.768 69.4666 58.768C69.4666 67.965 69.4666 78.3685 69.4666 88.1503C69.4666 98.7998 70.2276 107.747 64.9734 113.042ZM117.674 102.479C117.006 112.45 108.863 117.745 97.8816 117.776C87.1161 117.807 80.2256 113.023 76.0233 105.634C79.0446 103.555 82.4678 101.88 85.6171 99.929C88.1371 103.869 92.5014 107.657 98.9743 107.092C103.007 106.741 107.688 103.453 105.046 98.4715C103.764 96.0565 100.667 94.8298 97.8816 93.6152C89.0436 89.7592 78.6746 86.2225 79.6664 72.3672C79.9981 67.7387 82.1293 64.486 84.8886 62.1683C87.7163 59.7933 91.5036 58.2015 96.5459 58.0405C105.703 57.7472 110.727 61.8205 114.153 67.5115C111.237 69.7342 108.025 71.6635 104.803 73.5817C103.746 70.333 98.6418 67.1673 94.3598 69.0895C92.4126 69.9628 90.6628 72.5297 91.6889 75.6455C92.6039 78.4242 96.3361 79.9453 99.3386 81.2315C108.427 85.1215 118.583 88.9232 117.674 102.479Z" fill="#FFEA00"/>
</g>
<defs>
<clipPath id="clip0_111_613">
<rect width="128" height="128" fill="white"/>
</clipPath>
</defs>
</svg>
