<svg width="128" height="128" viewBox="0 0 128 128" fill="none" xmlns="http://www.w3.org/2000/svg">
<path d="M38.7991 18.9754C36.7916 20.1344 34.679 23.3306 34.4339 30.3026C34.3174 33.6142 31.5384 36.2045 28.2268 36.088C24.9151 35.9715 22.3249 33.1926 22.4413 29.8809C22.7418 21.3336 25.4448 12.829 32.7991 8.58304C40.1743 4.32499 48.9187 6.25861 56.4902 10.2979C59.4139 11.8577 60.5196 15.4922 58.9598 18.4158C57.4001 21.3395 53.7655 22.4452 50.8419 20.8855C44.6544 17.5846 40.8126 17.8128 38.7991 18.9754ZM70.9711 29.3825C73.5229 27.2684 77.3052 27.6232 79.4193 30.175C83.8544 35.528 88.1088 41.6322 91.9704 48.3212C100.293 62.735 105.424 77.5026 106.807 89.8894C107.498 96.0726 107.286 101.957 105.842 107.003C104.387 112.088 101.553 116.69 96.7992 119.434C91.048 122.755 84.4072 122.284 78.3291 120.071C72.2294 117.85 65.9516 113.645 59.9669 108.182C57.5194 105.948 57.3465 102.153 59.5805 99.7054C61.8145 97.2582 65.6095 97.0846 68.057 99.319C73.3299 104.132 78.2854 107.284 82.4344 108.795C86.6056 110.313 89.2296 109.949 90.7992 109.042C92.1144 108.283 93.4376 106.736 94.3056 103.701C95.1848 100.629 95.4624 96.423 94.8816 91.2206C93.7216 80.8358 89.2728 67.6483 81.5784 54.3212C78.0394 48.1914 74.1665 42.6442 70.1786 37.8306C68.0646 35.2789 68.4194 31.4965 70.9711 29.3825Z" fill="#FFEA00"/>
<path d="M116 65.6445C116 63.3265 114.288 59.8988 108.373 56.2005C105.563 54.4439 104.71 50.7421 106.466 47.9323C108.223 45.1225 111.925 44.2689 114.734 46.0255C121.986 50.5594 128 57.1525 128 65.6445C128 74.1607 121.954 80.7664 114.67 85.304C111.857 87.056 108.156 86.1968 106.404 83.384C104.652 80.5712 105.512 76.8709 108.324 75.1188C114.277 71.4108 116 67.9696 116 65.6445ZM90.9008 88.3024C91.456 91.5696 89.2576 94.668 85.9904 95.2232C79.1375 96.3872 71.7238 97.0192 64 97.0192C47.3563 97.0192 32.0014 94.08 20.5829 89.084C14.8826 86.5904 9.89272 83.4656 6.24423 79.692C2.56782 75.8893 0 71.1333 0 65.6445C0 59.0039 3.72866 53.4879 8.68384 49.3309C13.657 45.1588 20.4377 41.8246 28.161 39.3731C31.3195 38.3706 34.6926 40.1183 35.6951 43.2767C36.6976 46.4351 34.9499 49.8082 31.7915 50.8108C24.9867 52.9707 19.7792 55.6862 16.3963 58.5242C12.9954 61.3773 12 63.8319 12 65.6445C12 67.1629 12.6781 69.0824 14.8716 71.3513C17.093 73.649 20.5971 75.9924 25.3927 78.0905C34.9661 82.2784 48.6111 85.0192 64 85.0192C71.078 85.0192 77.8186 84.4392 83.9808 83.392C87.248 82.8376 90.3464 85.036 90.9008 88.3024Z" fill="#FFEA00"/>
<path d="M38.9752 109.042C40.9827 110.201 44.807 110.433 50.9674 107.159C53.8936 105.604 57.5264 106.716 59.0813 109.641C60.6364 112.568 59.5248 116.201 56.5985 117.756C49.0461 121.769 40.3295 123.681 32.9752 119.434C25.6 115.177 22.9024 106.637 22.6148 98.0598C22.5037 94.7478 25.0984 91.9734 28.4103 91.8622C31.7221 91.751 34.497 94.3454 34.608 97.6574C34.8431 104.667 36.9616 107.88 38.9752 109.042ZM31.902 75.9768C28.7953 74.8239 27.2114 71.3709 28.3643 68.2641C30.7827 61.7469 33.9417 55.0102 37.8036 48.3213C46.1255 33.9074 56.3487 22.0795 66.3843 14.6885C71.3943 10.9988 76.5951 8.23975 81.6878 6.96703C86.819 5.68455 92.2222 5.83873 96.975 8.58311C102.726 11.9034 105.639 17.8905 106.761 24.2604C107.888 30.6533 107.385 38.1926 105.646 46.107C104.935 49.3435 101.735 51.3909 98.499 50.6799C95.2622 49.9689 93.215 46.7688 93.9262 43.5322C95.4574 36.5592 95.7094 30.6916 94.9438 26.3429C94.1734 21.971 92.5446 19.8817 90.975 18.9754C89.6606 18.2162 87.659 17.8437 84.5974 18.6089C81.4966 19.3839 77.7152 21.2469 73.5004 24.3509C65.0865 30.5475 55.8904 40.9941 48.196 54.3213C44.6569 60.451 41.7893 66.5786 39.6146 72.439C38.4617 75.5457 35.0087 77.1296 31.902 75.9768Z" fill="#FFEA00"/>
<path d="M75.6738 64.5293C75.6738 70.5353 70.8049 75.4043 64.7988 75.4043C58.7927 75.4043 53.9238 70.5353 53.9238 64.5293C53.9238 58.5232 58.7927 53.6543 64.7988 53.6543C70.8049 53.6543 75.6738 58.5232 75.6738 64.5293Z" fill="#FFEA00"/>
</svg>
