<svg width="128" height="128" viewBox="0 0 128 128" fill="none" xmlns="http://www.w3.org/2000/svg">
<g clip-path="url(#clip0_111_626)">
<path d="M89.8052 88.2944C94.3774 87.8387 97.9204 84.0089 97.9204 79.3549C97.9204 79.1705 97.9153 78.9862 97.905 78.8019V78.8275C97.6644 73.8969 93.635 69.9904 88.6839 69.9392H88.3511C83.395 70.1235 79.4474 74.1837 79.4474 79.1654C79.4474 79.2781 79.4474 79.3907 79.4526 79.5085V79.4931C79.5857 81.9149 80.579 84.0858 82.1252 85.7241L82.1201 85.719C76.0426 97.0547 66.755 105.994 55.4756 111.478L55.1223 111.631C49.0193 115.011 41.7386 116.997 33.9921 116.997C32.0311 116.997 30.0958 116.869 28.2065 116.623L28.4318 116.649C21.4634 115.978 15.4628 112.328 11.6535 107.003L11.6074 106.931C8.858 103.066 7.21448 98.2528 7.21448 93.0509C7.21448 88.7654 8.33064 84.7411 10.2916 81.2493L10.2302 81.3721C13.0308 76.0678 16.8503 71.6544 21.4634 68.2547L21.571 68.183C20.6954 65.8637 19.9121 63.0682 19.3591 60.1958L19.3028 59.8579C-4.67416 77.0048 -2.24216 100.46 5.03848 111.544C11.4026 119.665 21.2126 124.836 32.2308 124.836C32.7326 124.836 33.2292 124.826 33.7258 124.805H33.6542C33.8334 124.81 34.0484 124.81 34.2634 124.81C37.5761 124.81 40.7966 124.426 43.889 123.704L43.6023 123.761C64.1233 120.003 80.9271 106.778 89.5492 88.8729L89.713 88.4941L89.8052 88.2944Z" fill="#FFEA00"/>
<path d="M118.682 68.0911C106.379 54.0623 88.4228 45.2559 68.4036 45.2559C67.7943 45.2559 67.1799 45.2661 66.5758 45.2815H66.6679H63.9134C62.4644 42.3784 59.5102 40.4175 56.1002 40.4175C55.9978 40.4175 55.9006 40.4175 55.7982 40.4226H55.8135H55.6139C50.6679 40.4943 46.6846 44.5186 46.6846 49.4748C46.6846 49.6232 46.6897 49.7666 46.6948 49.91V49.8895C46.9252 54.82 50.9547 58.7368 55.9108 58.788H56.3153C59.971 58.6447 63.0583 56.3714 64.3895 53.1868L64.41 53.1253H67.4052C80.4817 53.1407 92.6161 57.1548 102.651 64.0207L102.436 63.8824C110.275 68.9 116.327 76.109 119.803 84.644L119.911 84.941C121.242 87.716 122.015 90.9724 122.015 94.4079C122.015 98.0431 121.15 101.473 119.609 104.505L119.665 104.377C115.687 112.497 107.485 117.985 98.0023 117.985C97.6542 117.985 97.3111 117.98 96.9681 117.965H97.0193C91.1978 117.842 85.7041 116.562 80.7223 114.345L80.9886 114.453C79.0481 116.071 75.8122 118.733 73.4622 120.356C79.6778 123.408 86.9687 125.266 94.6743 125.445H94.7358C95.0378 125.456 95.3911 125.461 95.7444 125.461C108.811 125.461 120.254 118.523 126.598 108.135L126.69 107.976C128.441 103.824 129.454 99.0005 129.454 93.9368C129.454 83.7992 125.379 74.614 118.779 67.9324L118.784 67.9375L118.708 68.1013L118.682 68.0911Z" fill="#FFEA00"/>
<path d="M35.0417 91.218C35.267 96.1537 39.3066 100.081 44.273 100.117H44.6007C49.5569 99.9476 53.5146 95.8823 53.5146 90.9005C53.5146 85.8317 49.4238 81.7153 44.3601 81.6794H44.017C43.9658 81.6743 43.9044 81.6743 43.8481 81.6743C43.4743 81.6743 43.1159 81.7306 42.778 81.8433L42.8036 81.8381C37.3252 72.9242 34.0842 62.1261 34.0842 50.5703C34.0842 48.7066 34.1662 46.8634 34.3351 45.0458L34.3198 45.2813C34.7857 35.5226 38.3697 26.6804 44.0836 19.6455L44.0222 19.7274C49.0961 14.2439 56.2436 10.7521 64.2154 10.4961H64.2615C81.731 10.1684 89.0167 31.9386 89.5799 40.5914L97.6798 43.0132C95.7956 16.4865 79.299 2.56006 63.5242 2.56006C47.4884 3.39462 34.1815 14.1825 29.6196 28.8308L29.5479 29.097C27.3054 35.5585 26.0049 43.0029 26.0049 50.7495C26.0049 64.0001 29.7988 76.3649 36.3524 86.8148L36.1886 86.5332C35.4564 87.6391 35.0212 88.9959 35.0212 90.4551C35.0212 90.7265 35.0366 90.9927 35.0673 91.2538L35.0622 91.2231L35.0417 91.218Z" fill="#FFEA00"/>
</g>
<defs>
<clipPath id="clip0_111_626">
<rect width="128" height="128" fill="white"/>
</clipPath>
</defs>
</svg>
