<svg width="25" height="24" viewBox="0 0 25 24" fill="none" xmlns="http://www.w3.org/2000/svg">
<g clip-path="url(#clip0_111_509)">
<path d="M2.19343 11.8099C7.4408 9.52374 10.9399 8.01654 12.6906 7.28833C17.6894 5.20916 18.7281 4.84799 19.4051 4.83606C19.554 4.83344 19.887 4.87034 20.1026 5.04534C20.2847 5.1931 20.3348 5.39271 20.3588 5.5328C20.3828 5.6729 20.4126 5.99204 20.3889 6.2414C20.118 9.08763 18.9459 15.9947 18.3496 19.1825C18.0973 20.5314 17.6005 20.9836 17.1195 21.0279C16.0742 21.1241 15.2804 20.3371 14.268 19.6735C12.6838 18.635 11.7888 17.9885 10.251 16.9751C8.47385 15.804 9.62591 15.1603 10.6387 14.1084C10.9038 13.8331 15.5094 9.64397 15.5985 9.26395C15.6096 9.21642 15.62 9.03926 15.5147 8.94571C15.4095 8.85216 15.2542 8.88415 15.1421 8.9096C14.9832 8.94566 12.4523 10.6184 7.54955 13.928C6.83118 14.4212 6.18051 14.6616 5.59753 14.649C4.95483 14.6351 3.71855 14.2856 2.7995 13.9869C1.67225 13.6204 0.77633 13.4267 0.854345 12.8044C0.894979 12.4803 1.34134 12.1488 2.19343 11.8099Z" fill="#FFA200"/>
</g>
<defs>
<clipPath id="clip0_111_509">
<rect width="24" height="24" fill="white" transform="translate(0.0458984)"/>
</clipPath>
</defs>
</svg>
