<svg width="734" height="214" viewBox="0 0 734 214" fill="none" xmlns="http://www.w3.org/2000/svg">
<path d="M36.8883 49.4679C40.899 48.2733 44.867 47.6759 48.7923 47.6759C54.6803 47.6759 58.3923 48.1879 59.9283 49.2119C61.379 50.3213 62.6163 51.6013 63.6403 53.0519C63.8963 53.2226 66.499 52.1133 71.4483 49.7239C74.435 48.2733 76.5257 47.3346 77.7203 46.9079C79.939 46.0546 81.8163 45.6279 83.3523 45.6279C86.083 45.7986 87.9603 47.3773 88.9843 50.3639C89.4963 51.8999 89.7523 53.4786 89.7523 55.0999C106.136 48.4439 115.566 45.2013 118.04 45.3719C119.491 45.5426 120.814 47.8039 122.008 52.1559C122.35 53.4359 122.734 55.1853 123.16 57.4039L123.544 59.7079L123.672 60.6039L123.8 61.6279C124.227 64.9559 125.08 79.0359 126.36 103.868L113.304 105.66C113.816 87.9106 113.134 78.0973 111.256 76.2199C109.208 74.1719 105.923 73.3613 101.4 73.7879L98.2003 74.0439C97.4323 74.1293 96.451 74.3426 95.2563 74.6839C93.123 75.1959 91.8003 75.9639 91.2883 76.9879C90.3497 78.6946 89.8377 88.2519 89.7523 105.66L69.2723 106.684L69.7843 88.2519V86.3319L69.9123 84.4119L70.0403 80.3159C70.0403 76.3053 69.9977 73.5746 69.9123 72.1239C69.827 65.9799 69.0163 62.3106 67.4803 61.1159C65.7737 59.8359 62.4883 59.7506 57.6243 60.8599C52.675 61.8839 49.731 63.3773 48.7923 65.3399C47.427 67.8999 46.8297 81.3399 47.0003 105.66L36.8883 105.916V49.4679Z" fill="#40F00F"/>
<path d="M150.698 100.156L131.626 54.7159L150.57 44.6039L169.77 74.9399L186.794 46.1399L200.746 57.7879L156.33 124.988L79.9623 126.26L140.176 113.208L150.698 100.156Z" fill="#40F00F"/>
<path d="M318.514 75.4519C318.514 88.0813 317.49 95.6333 315.442 98.1079C313.736 100.071 305.16 100.497 289.714 99.3879L261.938 96.8279V144.316L249.138 143.932V56.2519C249.138 51.0466 249.522 48.0173 250.29 47.1639C251.229 46.1399 253.832 45.6279 258.098 45.6279H260.786C261.896 45.6279 263.005 45.5853 264.114 45.4999H270.386C275.421 45.3293 279.048 45.3293 281.266 45.4999C282.461 45.5853 283.954 45.6706 285.746 45.7559L287.794 45.8839L289.714 46.0119C293.64 46.2679 296.626 46.5666 298.674 46.9079C305.245 47.7613 309.597 49.1266 311.73 51.0039C316.253 55.2706 318.514 63.4199 318.514 75.4519ZM294.194 89.2759H297.522C299.826 89.1906 301.704 88.8066 303.154 88.1239C306.824 86.5026 308.658 82.2786 308.658 75.4519C308.658 68.0279 307.976 62.9079 306.61 60.0919C305.416 57.6173 303.538 56.2519 300.978 55.9959C298.76 55.8253 297.096 55.7399 295.986 55.7399H293.298C290.909 55.9959 288.605 56.8493 286.386 58.2999C284.338 59.4093 282.802 60.9026 281.778 62.7799C280.413 64.8279 279.816 67.4733 279.986 70.7159C280.328 78.0546 281.053 82.7906 282.162 84.9239C283.442 87.6546 286.301 89.0626 290.738 89.1479L294.194 89.2759Z" fill="#40F00F"/>
<path d="M381.214 64.6999C381.556 68.1133 381.598 71.7399 381.342 75.5799C380.745 84.6253 378.526 92.0066 374.686 97.7239C373.492 99.4306 371.956 101.052 370.078 102.588L363.678 106.556C361.374 108.007 358.9 108.775 356.254 108.86H340.638C336.798 108.689 333.812 107.196 331.678 104.38C329.545 101.735 327.881 98.1933 326.686 93.7559C325.065 88.2946 324.254 81.5533 324.254 73.5319L324.51 60.6039C324.51 60.1773 324.596 59.4519 324.766 58.4279C325.449 55.9533 326.814 53.6919 328.862 51.6439C330.91 49.4253 333.129 48.0173 335.518 47.4199C340.382 46.1399 344.905 45.4573 349.086 45.3719C357.193 45.5426 364.916 46.4813 372.254 48.1879C373.961 48.5293 375.582 49.5106 377.118 51.1319C378.569 52.5826 379.508 54.2466 379.934 56.1239C380.532 58.5986 380.958 61.4573 381.214 64.6999ZM364.446 70.7159C364.532 69.4359 364.489 67.5159 364.318 64.9559C364.148 62.9079 363.977 61.3719 363.806 60.3479C363.465 58.1293 362.185 56.7213 359.966 56.1239C356.894 55.3559 353.78 54.9719 350.622 54.9719H349.854C347.294 54.9719 344.777 55.2279 342.302 55.7399C339.572 56.5933 337.865 58.5559 337.182 61.6279C337.097 61.8839 337.054 62.2253 337.054 62.6519V62.7799L336.926 69.5639C336.926 73.7453 337.31 77.3293 338.078 80.3159C338.761 82.6199 339.572 84.4546 340.51 85.8199C341.534 87.2706 342.9 87.9959 344.606 87.9959L344.862 87.8679H352.414L352.542 87.9959C353.652 87.9959 354.761 87.6546 355.87 86.9719L358.942 85.0519C359.796 84.3693 360.564 83.5159 361.246 82.4919C363.124 79.5053 364.19 75.5799 364.446 70.7159Z" fill="#40F00F"/>
<path d="M387.129 45.2439L405.945 42.6839L406.585 49.3399L436.025 46.6519V72.5079C425.615 70.6306 418.617 69.7773 415.033 69.9479C409.316 70.2893 406.287 70.5879 405.945 70.8439C405.348 71.2706 404.879 73.8306 404.537 78.5239L402.745 107.964L388.537 107.196L387.129 45.2439Z" fill="#40F00F"/>
<path d="M451.991 58.4279L441.751 56.2519V30.1399H451.607V16.3159H472.471V34.7479H491.927V52.2839H467.863V106.3H452.631L451.991 58.4279Z" fill="#40F00F"/>
<path d="M500.323 105.788C498.275 53.3933 497.251 26.6413 497.251 25.5319C497.251 24.7639 497.806 24.0813 498.915 23.4839C499.257 23.3986 500.025 23.0573 501.219 22.4599L502.627 21.8199L504.291 21.1799C507.619 19.5586 580.55 18.1933 598.214 16.3159L596.934 37.1799H517.859C516.494 34.6199 514.361 33.2973 511.459 33.2119C508.558 33.2119 507.022 35.1319 506.851 38.9719V69.3079H532.835V78.7799H517.475V105.788H500.323Z" fill="#40F00F"/>
<path d="M598.214 64.6999C598.556 68.1133 598.598 71.7399 598.342 75.5799C597.745 84.6253 595.526 92.0066 591.686 97.7239C590.492 99.4306 588.956 101.052 587.078 102.588L580.678 106.556C578.374 108.007 575.9 108.775 573.254 108.86H557.638C553.798 108.689 550.812 107.196 548.678 104.38C546.545 101.735 544.881 98.1933 543.686 93.7559C542.065 88.2946 541.254 81.5533 541.254 73.5319L541.51 60.6039C541.51 60.1773 541.596 59.4519 541.766 58.4279C542.449 55.9533 543.814 53.6919 545.862 51.6439C547.91 49.4253 550.129 48.0173 552.518 47.4199C557.382 46.1399 561.905 45.4573 566.086 45.3719C574.193 45.5426 581.916 46.4813 589.254 48.1879C590.961 48.5293 592.582 49.5106 594.118 51.1319C595.569 52.5826 596.508 54.2466 596.934 56.1239C597.532 58.5986 597.958 61.4573 598.214 64.6999ZM581.446 70.7159C581.532 69.4359 581.489 67.5159 581.318 64.9559C581.148 62.9079 580.977 61.3719 580.806 60.3479C580.465 58.1293 579.185 56.7213 576.966 56.1239C573.894 55.3559 570.78 54.9719 567.622 54.9719H566.854C564.294 54.9719 561.777 55.2279 559.302 55.7399C556.572 56.5933 554.865 58.5559 554.182 61.6279C554.097 61.8839 554.054 62.2253 554.054 62.6519V62.7799L553.926 69.5639C553.926 73.7453 554.31 77.3293 555.078 80.3159C555.761 82.6199 556.572 84.4546 557.51 85.8199C558.534 87.2706 559.9 87.9959 561.606 87.9959L561.862 87.8679H569.414L569.542 87.9959C570.652 87.9959 571.761 87.6546 572.87 86.9719L575.942 85.0519C576.796 84.3693 577.564 83.5159 578.246 82.4919C580.124 79.5053 581.19 75.5799 581.446 70.7159Z" fill="#40F00F"/>
<path d="M604.001 19.2599C607.927 20.1133 611.767 20.5826 615.521 20.6679C618.423 20.7533 622.092 19.3026 626.529 16.3159L625.121 106.684L606.433 106.044L604.001 19.2599Z" fill="#40F00F"/>
<path d="M633.281 59.4519L654.657 58.4279L652.097 104.892H634.817L633.281 59.4519ZM635.073 20.2839L651.457 25.2759V45.2439L632.001 44.6039L635.073 20.2839Z" fill="#40F00F"/>
<path d="M716.964 64.6999C717.306 68.1133 717.348 71.7399 717.092 75.5799C716.495 84.6253 714.276 92.0066 710.436 97.7239C709.242 99.4306 707.706 101.052 705.828 102.588L699.428 106.556C697.124 108.007 694.65 108.775 692.004 108.86H676.388C672.548 108.689 669.562 107.196 667.428 104.38C665.295 101.735 663.631 98.1933 662.436 93.7559C660.815 88.2946 660.004 81.5533 660.004 73.5319L660.26 60.6039C660.26 60.1773 660.346 59.4519 660.516 58.4279C661.199 55.9533 662.564 53.6919 664.612 51.6439C666.66 49.4253 668.879 48.0173 671.268 47.4199C676.132 46.1399 680.655 45.4573 684.836 45.3719C692.943 45.5426 700.666 46.4813 708.004 48.1879C709.711 48.5293 711.332 49.5106 712.868 51.1319C714.319 52.5826 715.258 54.2466 715.684 56.1239C716.282 58.5986 716.708 61.4573 716.964 64.6999ZM700.196 70.7159C700.282 69.4359 700.239 67.5159 700.068 64.9559C699.898 62.9079 699.727 61.3719 699.556 60.3479C699.215 58.1293 697.935 56.7213 695.716 56.1239C692.644 55.3559 689.53 54.9719 686.372 54.9719H685.604C683.044 54.9719 680.527 55.2279 678.052 55.7399C675.322 56.5933 673.615 58.5559 672.932 61.6279C672.847 61.8839 672.804 62.2253 672.804 62.6519V62.7799L672.676 69.5639C672.676 73.7453 673.06 77.3293 673.828 80.3159C674.511 82.6199 675.322 84.4546 676.26 85.8199C677.284 87.2706 678.65 87.9959 680.356 87.9959L680.612 87.8679H688.164L688.292 87.9959C689.402 87.9959 690.511 87.6546 691.62 86.9719L694.692 85.0519C695.546 84.3693 696.314 83.5159 696.996 82.4919C698.874 79.5053 699.94 75.5799 700.196 70.7159Z" fill="#40F00F"/>
<path d="M37.1698 163.764C34.8232 165.001 31.5378 165.62 27.3138 165.62C27.0152 165.577 26.7378 165.556 26.4818 165.556C26.6525 165.556 25.9912 165.343 24.4978 164.916C21.6818 164.105 19.4632 162.228 17.8418 159.284C17.1592 157.151 16.7965 155.679 16.7538 154.868C16.7112 153.716 16.7965 151.924 17.0098 149.492C18.2045 147.7 19.2712 146.612 20.2098 146.228H20.4018C20.6152 146.228 20.8285 146.399 21.0418 146.74C20.8712 148.447 20.7858 150.196 20.7858 151.988C21.0418 153.268 21.6392 154.505 22.5778 155.7C23.9858 156.98 25.1165 157.919 25.9698 158.516C26.6098 158.943 27.2498 159.22 27.8898 159.348C28.7432 159.476 29.4045 159.583 29.8738 159.668C31.4952 160.18 32.6898 160.436 33.4578 160.436C34.2685 160.436 34.9725 160.244 35.5698 159.86C35.7832 159.732 36.2312 159.497 36.9138 159.156C40.2845 157.535 42.7165 155.892 44.2098 154.228C47.2392 150.943 49.2232 148.703 50.1618 147.508C51.9538 145.247 53.5538 142.729 54.9618 139.956C54.5778 139.999 54.2152 139.999 53.8738 139.956C53.4472 140.34 52.7645 140.511 51.8258 140.468C51.2712 140.468 50.3965 140.575 49.2018 140.788C48.0498 140.959 47.1752 141.023 46.5778 140.98C46.4072 141.023 45.6605 141.108 44.3378 141.236C43.2712 141.321 42.6525 141.535 42.4818 141.876C42.0125 141.833 41.1592 142.153 39.9218 142.836C38.7272 143.476 37.8952 144.009 37.4258 144.436C38.5778 143.668 39.2392 143.22 39.4098 143.092C37.0632 144.329 35.8258 145.012 35.6978 145.14C35.7832 145.14 35.1432 145.161 33.7778 145.204C32.9672 145.204 32.3912 144.991 32.0498 144.564C32.0498 144.223 32.0712 143.732 32.1138 143.092C32.1565 142.409 32.1778 141.897 32.1778 141.556C32.1778 141.385 32.3485 141.001 32.6898 140.404C33.0738 139.807 33.3298 139.508 33.4578 139.508C33.6285 139.465 34.1405 139.188 34.9938 138.676C35.8898 138.121 36.5298 137.844 36.9138 137.844L37.2338 137.588C38.1725 137.673 39.4312 137.567 41.0098 137.268C42.8445 136.927 44.1245 136.756 44.8498 136.756L56.6898 136.372C57.7565 133.855 58.7805 131.145 59.7618 128.244C59.8898 125.855 59.9538 124.191 59.9538 123.252C60.1245 122.015 59.5058 120.713 58.0978 119.348C56.9458 118.239 56.0925 117.684 55.5378 117.684C55.4098 117.684 55.3032 117.705 55.2178 117.748C54.9618 117.876 54.3645 118.004 53.4258 118.132C52.6578 118.217 52.1245 118.473 51.8258 118.9C51.6552 118.985 51.1858 119.199 50.4178 119.54C49.8632 119.796 49.4365 120.116 49.1378 120.5C47.1752 121.78 45.9378 124.084 45.4258 127.412C45.3405 127.839 45.1058 128.265 44.7218 128.692C44.3378 129.119 43.9325 129.332 43.5058 129.332C43.3778 129.332 43.2498 129.311 43.1218 129.268C42.4818 128.927 42.1618 128.415 42.1618 127.732C41.6925 127.732 41.4578 127.241 41.4578 126.26C41.4578 126.004 41.4792 125.641 41.5218 125.172C41.5645 124.66 41.5858 124.276 41.5858 124.02C41.5858 123.892 41.5645 123.807 41.5218 123.764L45.6178 118.452C47.2818 116.319 49.1805 114.697 51.3138 113.588C53.0632 112.692 54.0018 112.244 54.1298 112.244C54.6845 112.244 55.4738 112.159 56.4978 111.988C57.5645 111.775 58.3538 111.668 58.8658 111.668C61.0845 111.668 62.7912 112.905 63.9858 115.38C64.8818 117.257 65.3298 119.433 65.3298 121.908C65.4152 122.036 65.1378 123.145 64.4978 125.236C63.7725 127.668 63.2818 129.332 63.0258 130.228C62.5138 131.849 61.6392 133.876 60.4018 136.308C61.7672 136.351 62.9192 136.436 63.8578 136.564C64.0712 136.607 64.4978 136.969 65.1378 137.652C65.4365 138.036 65.5858 138.484 65.5858 138.996C65.5858 139.252 65.3725 139.529 64.9458 139.828C64.5618 140.127 64.2418 140.255 63.9858 140.212C63.0472 140.169 62.3218 140.127 61.8098 140.084C60.9138 139.572 59.8685 139.359 58.6738 139.444C56.0712 144.137 52.0818 149.983 46.7058 156.98C46.5778 157.151 46.2152 157.449 45.6178 157.876C41.7352 160.607 39.1965 162.399 38.0018 163.252C37.7032 163.423 37.4258 163.593 37.1698 163.764Z" fill="#FFEA00"/>
<path d="M91.8663 137.204C93.2317 135.412 94.341 134.516 95.1943 134.516C96.005 134.516 96.5383 135.412 96.7943 137.204C96.8797 137.844 96.9223 138.313 96.9223 138.612C95.3863 140.959 94.277 142.729 93.5943 143.924C89.8823 149.897 87.621 153.609 86.8103 155.06C86.1277 156.34 85.637 157.577 85.3383 158.772C86.917 158.303 87.941 157.94 88.4103 157.684C89.6477 156.959 90.5223 156.447 91.0343 156.148C93.0823 154.612 94.917 153.119 96.5383 151.668C98.1597 150.217 99.973 148.084 101.978 145.268C103.984 142.409 105.392 140.575 106.202 139.764C107.866 138.143 109.04 137.14 109.722 136.756C110.277 136.457 111.45 136.479 113.242 136.82C113.669 136.863 113.882 137.012 113.882 137.268C113.882 137.78 113.584 138.463 112.986 139.316C111.877 140.937 110.789 142.751 109.722 144.756C108.442 147.273 107.333 149.492 106.394 151.412C105.84 152.393 105.434 153.055 105.178 153.396C104.794 154.377 104.517 155.081 104.346 155.508C103.706 157.172 103.386 158.281 103.386 158.836C103.386 159.305 103.706 159.732 104.346 160.116C104.602 160.116 104.837 160.137 105.05 160.18C105.69 160.052 106.032 160.095 106.074 160.308C106.202 160.863 106.181 161.247 106.01 161.46C102.469 163.551 99.9303 164.596 98.3943 164.596C97.9677 164.596 97.7117 164.489 97.6263 164.276C97.6263 162.015 97.861 160.329 98.3303 159.22C100.72 153.673 101.914 150.879 101.914 150.836C102.81 149.087 103.386 147.828 103.642 147.06C102.448 148.852 100.954 150.772 99.1623 152.82C98.1383 153.759 97.3703 154.42 96.8583 154.804C94.1703 157.193 91.8237 159.007 89.8183 160.244C87.173 161.908 85.061 163.273 83.4823 164.34C82.8423 164.767 82.2237 164.98 81.6263 164.98C80.8583 164.98 80.1543 164.639 79.5143 163.956C79.173 163.615 79.0023 163.316 79.0023 163.06C79.0023 162.633 79.4077 161.737 80.2183 160.372C82.1383 157.087 83.845 153.951 85.3383 150.964C84.3143 151.945 83.5037 152.649 82.9063 153.076C78.853 156.831 76.4637 158.879 75.7383 159.22C75.3543 159.391 74.7357 159.753 73.8823 160.308C70.2983 162.612 68.2077 163.977 67.6103 164.404C67.013 164.873 66.3943 165.108 65.7543 165.108C64.9863 165.108 64.261 164.745 63.5783 164.02C63.237 163.679 63.0663 163.38 63.0663 163.124C63.0663 162.783 63.493 161.887 64.3463 160.436C67.205 155.572 69.829 150.516 72.2183 145.268C74.0957 141.172 75.3543 138.505 75.9943 137.268C77.1463 135.049 78.0423 133.471 78.6823 132.532C78.8103 132.276 79.045 132.105 79.3863 132.02C79.557 131.935 79.8343 131.871 80.2183 131.828C81.6263 131.828 82.4583 132.361 82.7143 133.428C82.885 135.519 82.9703 136.415 82.9703 136.116C82.9703 136.159 82.949 136.223 82.9063 136.308C82.6077 137.119 82.1383 137.801 81.4983 138.356C80.7303 139.081 80.2183 139.657 79.9623 140.084C78.8957 141.876 78.1277 143.177 77.6583 143.988C74.0317 149.791 71.7703 153.503 70.8743 155.124C70.1917 156.404 69.7223 157.641 69.4663 158.836C71.0877 158.367 72.0903 158.004 72.4743 157.748C76.229 155.06 78.789 153.204 80.1543 152.18C83.6103 149.62 86.6823 146.249 89.3703 142.068C90.2237 139.892 91.0557 138.271 91.8663 137.204Z" fill="#FFEA00"/>
<path d="M138.32 140.276C137.382 141.769 136.208 144.393 134.8 148.148C133.392 152.031 132.347 154.953 131.664 156.916L143.248 145.268C148.539 139.935 152.699 136.521 155.728 135.028C155.942 134.9 156.24 134.836 156.624 134.836C158.416 134.836 159.312 135.284 159.312 136.18C158.843 137.076 158.416 137.737 158.032 138.164C156.326 141.577 155.046 144.116 154.192 145.78C152.315 149.535 151.312 152.159 151.184 153.652C151.142 154.036 150.992 154.655 150.736 155.508C150.48 156.319 150.352 156.959 150.352 157.428C150.352 157.812 150.48 158.303 150.736 158.9C151.035 159.455 151.334 159.732 151.632 159.732C151.846 159.732 152.23 159.519 152.784 159.092C152.955 158.964 153.126 158.9 153.296 158.9C153.638 158.9 153.808 159.22 153.808 159.86C153.808 161.14 153.424 161.716 152.656 161.588C152.571 161.588 151.952 162.185 150.8 163.38C149.691 164.575 148.774 165.172 148.048 165.172C147.323 165.172 146.64 164.724 146 163.828C145.019 162.42 144.72 159.988 145.104 156.532C145.488 153.076 146.832 148.617 149.136 143.156C146.875 144.82 143.888 147.679 140.176 151.732C135.184 157.151 132.347 160.223 131.664 160.948C130.982 161.673 130.299 162.42 129.616 163.188C128.934 163.913 128.08 164.233 127.056 164.148C126.203 164.105 125.776 163.508 125.776 162.356C125.776 161.716 125.904 160.991 126.16 160.18C128.251 153.609 129.36 150.196 129.488 149.94C130.384 147.807 131.323 145.204 132.304 142.132C130.256 144.607 128.336 147.124 126.544 149.684C120.827 157.791 116.795 162.356 114.448 163.38C112.571 164.191 111.568 164.596 111.44 164.596C111.184 164.596 110.63 164.489 109.776 164.276C109.478 164.233 109.222 164.169 109.008 164.084C108.966 163.871 108.902 163.615 108.816 163.316C108.688 162.847 109.392 161.844 110.928 160.308C111.056 160.18 111.227 159.775 111.44 159.092C111.568 158.537 111.718 158.26 111.888 158.26C112.699 158.687 113.36 158.9 113.872 158.9C115.195 158.9 116.262 158.388 117.072 157.364C118.566 156.169 120.144 154.527 121.808 152.436C123.856 149.833 125.371 147.892 126.352 146.612C127.632 145.033 129.083 142.9 130.704 140.212C132.326 137.524 133.158 136.137 133.2 136.052C134.566 134.132 135.803 133.172 136.912 133.172C137.382 133.172 137.894 133.556 138.448 134.324C139.046 135.049 139.323 135.647 139.28 136.116C139.11 138.164 138.79 139.551 138.32 140.276Z" fill="#FFEA00"/>
<path d="M176.377 162.868C176.292 162.441 176.249 162.015 176.249 161.588C176.249 161.076 176.313 160.415 176.441 159.604C176.825 157.044 178.147 153.417 180.409 148.724C178.702 149.961 176.505 152.095 173.817 155.124L172.857 156.212C172.387 156.724 171.79 157.257 171.065 157.812C168.206 159.945 166.755 161.033 166.713 161.076C165.134 162.228 163.982 162.932 163.257 163.188C162.233 163.956 161.124 164.34 159.929 164.34C159.801 164.34 159.587 164.361 159.289 164.404C158.99 164.447 158.777 164.468 158.649 164.468C158.051 164.468 157.348 164.063 156.537 163.252C155.769 162.399 155.385 161.695 155.385 161.14C156.11 157.94 157.049 155.529 158.201 153.908C161.017 150.623 163.79 147.529 166.521 144.628C167.715 143.305 168.505 142.409 168.889 141.94C170.723 140.276 172.153 139.081 173.177 138.356C174.969 137.076 176.611 135.924 178.105 134.9C179.641 133.833 180.665 133.151 181.177 132.852C182.286 132.212 183.289 131.849 184.185 131.764C186.787 131.764 187.918 132.895 187.577 135.156C187.534 135.412 187.449 135.711 187.321 136.052L187.193 136.244C187.065 136.585 186.979 136.884 186.937 137.14C186.894 137.439 186.937 137.78 187.065 138.164L189.753 136.18C189.881 136.18 190.03 136.329 190.201 136.628C190.329 137.225 190.755 137.588 191.481 137.716C189.774 140.532 187.961 143.732 186.041 147.316C185.017 149.108 184.249 150.452 183.737 151.348C182.841 152.927 182.201 154.292 181.817 155.444C181.817 155.572 181.774 155.743 181.689 155.956L181.625 156.404C181.667 157.513 181.774 158.196 181.945 158.452C181.902 158.495 181.859 158.559 181.817 158.644V158.836C181.689 159.391 181.988 159.967 182.713 160.564C183.481 161.161 184.163 161.481 184.761 161.524H185.465L186.041 161.46C187.022 161.46 187.492 161.609 187.449 161.908C187.406 162.079 187.235 162.335 186.937 162.676C186.169 163.615 185.529 164.212 185.017 164.468C184.505 164.724 183.609 164.873 182.329 164.916C180.11 165.001 178.894 165.044 178.681 165.044C177.785 165.044 177.23 164.959 177.017 164.788C176.633 164.063 176.419 163.423 176.377 162.868ZM160.057 159.924C159.971 160.479 160.505 160.756 161.657 160.756C162.467 160.756 163.47 160.308 164.665 159.412C166.243 158.26 167.843 157.108 169.465 155.956C171.299 154.548 172.665 153.183 173.561 151.86C173.817 151.647 173.945 151.455 173.945 151.284L173.881 151.22C173.838 151.22 173.774 151.241 173.689 151.284C173.475 151.327 173.305 151.348 173.177 151.348C172.281 151.348 171.897 151.007 172.025 150.324C172.025 150.153 172.11 149.983 172.281 149.812C172.196 149.684 172.174 149.577 172.217 149.492C172.814 149.151 173.454 148.831 174.137 148.532C175.502 147.977 176.718 147.103 177.785 145.908C181.07 142.281 183.182 139.167 184.121 136.564C184.163 136.479 184.206 136.372 184.249 136.244L184.313 136.052C184.441 135.199 184.057 134.772 183.161 134.772C181.923 134.772 180.537 135.369 179.001 136.564C174.948 139.721 172.046 142.345 170.297 144.436C166.585 148.831 164.452 151.455 163.897 152.308C162.233 154.868 160.953 157.407 160.057 159.924Z" fill="#FFEA00"/>
<path d="M198.647 153.396C197.666 154.975 197.154 155.871 197.111 156.084H197.175C196.663 156.895 195.895 158.239 194.871 160.116C194.018 161.695 193.421 162.697 193.079 163.124C192.183 163.721 191.522 164.063 191.095 164.148C190.285 164.447 189.495 164.596 188.727 164.596H188.599C188.173 164.724 187.853 164.788 187.639 164.788C187.298 164.788 187.149 164.66 187.191 164.404C187.234 164.233 187.405 163.935 187.703 163.508C187.831 163.337 187.895 163.231 187.895 163.188C189.047 161.183 190.775 158.281 193.079 154.484C198.157 146.079 201.207 140.191 202.231 136.82C201.677 137.076 201.229 137.311 200.887 137.524C199.437 138.207 198.583 138.548 198.327 138.548C198.114 138.548 198.029 138.463 198.071 138.292C198.199 137.524 199.223 136.564 201.143 135.412C202.765 134.431 203.725 133.833 204.023 133.62C204.749 133.065 205.943 132.788 207.607 132.788C208.418 132.788 208.781 133.129 208.695 133.812C208.653 133.983 208.567 134.239 208.439 134.58C208.098 135.177 207.906 135.54 207.863 135.668C207.309 137.375 206.519 139.231 205.495 141.236L202.551 146.612C202.637 146.996 202.871 147.231 203.255 147.316C203.511 147.401 203.895 147.423 204.407 147.38C205.303 147.295 205.751 147.252 205.751 147.252C206.69 147.252 208.077 147.124 209.911 146.868C211.789 146.569 213.197 146.42 214.135 146.42C214.263 146.42 214.477 146.441 214.775 146.484C215.415 145.076 215.906 144.159 216.247 143.732L218.487 139.508C219.725 137.161 220.471 135.988 220.727 135.988C220.77 135.988 221.346 135.753 222.455 135.284C223.607 134.772 224.205 134.559 224.247 134.644C224.29 134.9 224.482 135.177 224.823 135.476C225.165 135.732 225.293 136.052 225.207 136.436C223.373 139.892 221.559 143.007 219.767 145.78C220.279 145.652 220.898 145.716 221.623 145.972C222.391 146.185 222.775 146.548 222.775 147.06C222.775 148.084 221.239 148.724 218.167 148.98C217.229 150.601 216.333 152.543 215.479 154.804C214.797 156.041 214.455 157.151 214.455 158.132C214.37 158.473 214.327 158.772 214.327 159.028C214.327 160.052 214.647 160.564 215.287 160.564C215.799 160.564 216.461 160.18 217.271 159.412C217.399 159.412 217.57 159.583 217.783 159.924C217.997 160.223 218.189 160.351 218.359 160.308C217.762 161.417 216.738 162.356 215.287 163.124C213.879 163.892 212.514 164.276 211.191 164.276C210.679 164.276 210.359 164.191 210.231 164.02C209.25 162.953 208.759 162.121 208.759 161.524C208.759 160.585 209.079 159.476 209.719 158.196C209.847 157.172 210.423 155.572 211.447 153.396L213.623 148.916C211.319 149.129 209.762 149.279 208.951 149.364C204.258 149.833 200.973 150.943 199.095 152.692C198.925 152.991 198.775 153.225 198.647 153.396Z" fill="#FFEA00"/>
<path d="M284.557 133.94C284.685 133.641 284.856 133.001 285.069 132.02C285.24 131.295 285.517 130.697 285.901 130.228C286.712 129.204 287.821 128.244 289.229 127.348C290.68 126.409 291.96 125.94 293.069 125.94C293.197 125.897 293.325 125.876 293.453 125.876C294.307 125.876 294.733 126.367 294.733 127.348C294.691 127.519 294.029 128.5 292.749 130.292C291.64 131.785 290.104 134.303 288.141 137.844C286.221 141.215 284.643 143.711 283.405 145.332L274.701 156.852C273.677 158.217 273.08 159.028 272.909 159.284C272.909 159.839 274.125 160.116 276.557 160.116C278.179 160.116 279.693 160.031 281.101 159.86C281.784 159.775 283.277 159.455 285.581 158.9C287.331 158.473 288.845 158.26 290.125 158.26C290.381 158.26 291.235 157.94 292.685 157.3C294.179 156.617 295.096 156.233 295.437 156.148C297.997 155.423 299.747 154.633 300.685 153.78C303.843 150.921 305.571 148.489 305.869 146.484C306.253 143.753 306.445 141.855 306.445 140.788C306.445 139.423 306.253 138.484 305.869 137.972C305.699 137.673 305.613 137.481 305.613 137.396C305.613 135.348 303.587 131.657 299.533 126.324C298.595 125.087 298.061 124.404 297.933 124.276C294.52 120.777 290.808 118.687 286.797 118.004C281.635 117.151 277.624 116.745 274.765 116.788C274.083 117.001 273.592 117.193 273.293 117.364C271.928 117.449 271.203 118.004 271.117 119.028C270.947 121.716 271.267 123.38 272.077 124.02C272.248 125.001 272.312 125.897 272.269 126.708C272.312 126.793 272.504 127.433 272.845 128.628C273.059 129.353 273.165 130.036 273.165 130.676C273.165 131.657 272.653 132.639 271.629 133.62C271.075 133.62 270.627 133.364 270.285 132.852C269.773 132.041 269.453 131.593 269.325 131.508C268.045 130.399 267.192 129.332 266.765 128.308C266.381 127.284 266.147 125.855 266.061 124.02C265.976 121.631 265.976 119.753 266.061 118.388C266.104 117.705 266.211 117.215 266.381 116.916C267.235 115.337 269.475 113.865 273.101 112.5C273.784 111.817 274.36 111.54 274.829 111.668C275.469 111.668 276.408 111.583 277.645 111.412C278.883 111.241 279.821 111.156 280.461 111.156C280.931 111.156 281.4 111.199 281.869 111.284C288.013 112.351 294.477 115.487 301.261 120.692C301.859 121.161 302.371 121.567 302.797 121.908C303.224 122.505 303.523 122.996 303.693 123.38C305.4 125.215 306.744 126.772 307.725 128.052C309.517 130.313 310.648 131.871 311.117 132.724C311.843 134.004 312.205 136.009 312.205 138.74C312.205 140.532 311.992 143.199 311.565 146.74C311.352 148.575 309.816 150.772 306.957 153.332C305.976 154.228 305.251 154.761 304.781 154.932C303.672 155.359 302.435 156.127 301.069 157.236C300.259 157.919 299.341 158.537 298.317 159.092C296.781 159.945 295.843 160.436 295.501 160.564C295.16 160.649 294.413 160.756 293.261 160.884C292.451 160.969 291.768 161.225 291.213 161.652C290.659 162.036 290.147 162.292 289.677 162.42C289.421 162.463 288.803 162.548 287.821 162.676C285.688 162.889 284.344 163.145 283.789 163.444C283.619 163.444 283.384 163.465 283.085 163.508H282.445C276.216 163.508 272.824 163.529 272.269 163.572C270.904 163.657 270.115 163.828 269.901 164.084C268.195 166.004 266.957 166.964 266.189 166.964C265.507 166.964 264.845 166.772 264.205 166.388C263.565 166.004 263.245 165.492 263.245 164.852C263.373 164.596 263.437 164.383 263.437 164.212C263.437 163.956 263.245 163.807 262.861 163.764C261.965 163.551 261.325 163.38 260.941 163.252C259.491 162.825 257.912 162.079 256.205 161.012C254.029 159.647 252.941 158.409 252.941 157.3C252.941 156.489 253.539 155.721 254.733 154.996C255.331 154.996 256.056 154.932 256.909 154.804C258.019 154.633 258.787 154.697 259.213 154.996C259.64 155.252 260.259 155.785 261.069 156.596C261.88 157.407 262.563 157.961 263.117 158.26C264.397 158.772 265.379 159.071 266.061 159.156C266.787 159.327 267.427 159.049 267.981 158.324C272.675 152.137 275.64 148.212 276.877 146.548C280.547 141.471 283.107 137.268 284.557 133.94Z" fill="#FFEA00"/>
<path d="M341.82 140.276C340.882 141.769 339.708 144.393 338.3 148.148C336.892 152.031 335.847 154.953 335.164 156.916L346.748 145.268C352.039 139.935 356.199 136.521 359.228 135.028C359.442 134.9 359.74 134.836 360.124 134.836C361.916 134.836 362.812 135.284 362.812 136.18C362.343 137.076 361.916 137.737 361.532 138.164C359.826 141.577 358.546 144.116 357.692 145.78C355.815 149.535 354.812 152.159 354.684 153.652C354.642 154.036 354.492 154.655 354.236 155.508C353.98 156.319 353.852 156.959 353.852 157.428C353.852 157.812 353.98 158.303 354.236 158.9C354.535 159.455 354.834 159.732 355.132 159.732C355.346 159.732 355.73 159.519 356.284 159.092C356.455 158.964 356.626 158.9 356.796 158.9C357.138 158.9 357.308 159.22 357.308 159.86C357.308 161.14 356.924 161.716 356.156 161.588C356.071 161.588 355.452 162.185 354.3 163.38C353.191 164.575 352.274 165.172 351.548 165.172C350.823 165.172 350.14 164.724 349.5 163.828C348.519 162.42 348.22 159.988 348.604 156.532C348.988 153.076 350.332 148.617 352.636 143.156C350.375 144.82 347.388 147.679 343.676 151.732C338.684 157.151 335.847 160.223 335.164 160.948C334.482 161.673 333.799 162.42 333.116 163.188C332.434 163.913 331.58 164.233 330.556 164.148C329.703 164.105 329.276 163.508 329.276 162.356C329.276 161.716 329.404 160.991 329.66 160.18C331.751 153.609 332.86 150.196 332.988 149.94C333.884 147.807 334.823 145.204 335.804 142.132C333.756 144.607 331.836 147.124 330.044 149.684C324.327 157.791 320.295 162.356 317.948 163.38C316.071 164.191 315.068 164.596 314.94 164.596C314.684 164.596 314.13 164.489 313.276 164.276C312.978 164.233 312.722 164.169 312.508 164.084C312.466 163.871 312.402 163.615 312.316 163.316C312.188 162.847 312.892 161.844 314.428 160.308C314.556 160.18 314.727 159.775 314.94 159.092C315.068 158.537 315.218 158.26 315.388 158.26C316.199 158.687 316.86 158.9 317.372 158.9C318.695 158.9 319.762 158.388 320.572 157.364C322.066 156.169 323.644 154.527 325.308 152.436C327.356 149.833 328.871 147.892 329.852 146.612C331.132 145.033 332.583 142.9 334.204 140.212C335.826 137.524 336.658 136.137 336.7 136.052C338.066 134.132 339.303 133.172 340.412 133.172C340.882 133.172 341.394 133.556 341.948 134.324C342.546 135.049 342.823 135.647 342.78 136.116C342.61 138.164 342.29 139.551 341.82 140.276Z" fill="#FFEA00"/>
<path d="M379.877 133.94C379.322 135.476 377.935 137.716 375.717 140.66C375.333 141.215 374.927 141.663 374.501 142.004C374.117 142.303 372.901 144.159 370.853 147.572C368.976 150.687 367.695 152.863 367.013 154.1C365.605 156.745 364.858 158.239 364.773 158.58C366.949 157.94 368.272 157.471 368.741 157.172C369.936 156.319 370.853 155.7 371.493 155.316C374.693 153.183 376.847 151.583 377.957 150.516C379.749 149.236 381.605 147.679 383.525 145.844C384.933 144.393 386.362 142.964 387.813 141.556C391.013 138.313 393.082 136.159 394.021 135.092C394.405 134.793 395.642 134.815 397.733 135.156C398.159 135.241 398.373 135.412 398.373 135.668C398.373 136.265 398.074 136.991 397.477 137.844C396.453 139.337 395.301 141.279 394.021 143.668L390.373 150.772C389.776 151.796 389.37 152.479 389.157 152.82C388.73 153.929 388.431 154.697 388.261 155.124C387.535 156.959 387.173 158.132 387.173 158.644C387.173 159.156 387.535 159.625 388.261 160.052H389.029C389.712 159.967 390.074 160.031 390.117 160.244C390.245 160.841 390.202 161.247 389.989 161.46C389.69 161.844 388.986 162.271 387.877 162.74C384.634 164.148 382.629 164.852 381.861 164.852C381.434 164.852 381.178 164.724 381.093 164.468C381.093 161.951 381.328 160.159 381.797 159.092C384.016 154.015 385.296 151.028 385.637 150.132C386.405 148.767 386.917 147.551 387.173 146.484C385.509 148.063 384.357 149.087 383.717 149.556C382.991 150.495 382.522 150.985 382.309 151.028C381.84 151.369 381.562 151.647 381.477 151.86C380.922 152.244 380.453 152.543 380.069 152.756C376.613 155.913 374.031 157.897 372.325 158.708C371.386 159.348 370.618 159.903 370.021 160.372C367.376 162.079 365.733 163.167 365.093 163.636C364.794 163.892 364.218 164.148 363.365 164.404C362.512 164.617 361.893 164.724 361.509 164.724C360.698 164.724 359.93 164.34 359.205 163.572C358.821 163.145 358.629 162.804 358.629 162.548C358.629 162.207 359.077 161.268 359.973 159.732C363.13 154.356 365.946 148.98 368.421 143.604C370.512 139.039 371.855 136.18 372.453 135.028C373.69 132.639 374.65 130.953 375.333 129.972C375.461 129.716 375.695 129.524 376.037 129.396L376.997 129.204C378.49 129.204 379.365 129.78 379.621 130.932C379.834 133.151 379.941 134.089 379.941 133.748C379.898 133.833 379.877 133.897 379.877 133.94Z" fill="#FFEA00"/>
<path d="M426.73 143.092C424.64 146.719 422.592 150.9 420.586 155.636C429.29 147.401 436.266 141.961 441.514 139.316C441.77 139.188 442.112 139.124 442.538 139.124C443.605 139.124 444.501 139.444 445.226 140.084C445.354 140.212 445.418 140.383 445.418 140.596C445.418 140.895 445.205 141.343 444.778 141.94C444.522 142.324 444.373 142.58 444.33 142.708L444.01 143.476C442.602 146.847 441.898 150.111 441.898 153.268C441.898 154.377 441.962 155.359 442.09 156.212C442.517 159.028 443.541 160.436 445.162 160.436C445.802 160.436 446.72 160.223 447.914 159.796C448.384 159.625 448.789 159.54 449.13 159.54C449.514 159.54 449.706 159.689 449.706 159.988C449.706 160.415 449.408 160.948 448.81 161.588C448.213 162.185 447.68 162.527 447.21 162.612C446.741 162.655 446.058 162.911 445.162 163.38C444.309 163.849 443.712 164.105 443.37 164.148H443.05L442.73 164.212C440.725 164.212 439.018 163.423 437.61 161.844C436.245 160.265 435.584 158.452 435.626 156.404C435.712 152.948 436.437 149.129 437.802 144.948C436.352 146.057 434.752 147.316 433.002 148.724C429.674 151.412 427.733 153.012 427.178 153.524L424.618 155.956C422.741 157.705 421.738 158.665 421.61 158.836C419.989 160.543 419.178 161.396 419.178 161.396C417.898 162.463 416.597 162.996 415.274 162.996H414.57C414.4 162.953 414.229 162.932 414.058 162.932C413.546 162.889 413.29 162.719 413.29 162.42C413.29 162.164 413.504 161.716 413.93 161.076L413.994 160.948C416.554 155.615 418.325 151.881 419.306 149.748C421.056 146.121 421.93 144.201 421.93 143.988C421.93 143.903 421.888 143.86 421.802 143.86C421.717 143.86 421.525 143.988 421.226 144.244L416.234 148.66C411.882 152.585 409.002 155.188 407.594 156.468C404.778 159.028 403.178 160.521 402.794 160.948C402.666 161.033 402.432 161.268 402.09 161.652C400.128 163.913 399.082 165.108 398.954 165.236C397.76 166.559 396.565 167.22 395.37 167.22C393.792 167.22 393.002 166.943 393.002 166.388V166.26L393.066 166.132C393.493 165.62 393.92 165.001 394.346 164.276L399.786 155.06C400.469 153.908 401.152 152.82 401.834 151.796C405.418 146.42 407.893 142.26 409.258 139.316C409.557 138.676 409.706 137.716 409.706 136.436C409.706 135.753 409.664 135.263 409.578 134.964C409.237 133.769 409.066 132.831 409.066 132.148C409.066 131.551 409.258 131.188 409.642 131.06C410.965 130.377 411.925 129.801 412.522 129.332C412.821 129.247 413.354 128.905 414.122 128.308C414.762 127.796 415.317 127.54 415.786 127.54C415.957 127.54 416.149 127.583 416.362 127.668C417.13 128.095 417.514 128.5 417.514 128.884C417.514 129.183 417.365 129.737 417.066 130.548C416.341 132.596 415.616 134.495 414.89 136.244C414.293 137.695 413.546 139.231 412.65 140.852C412.181 141.748 411.392 143.092 410.282 144.884L403.242 156.404L423.018 138.1C424.682 136.564 425.792 135.796 426.346 135.796C426.816 135.796 427.264 136.223 427.69 137.076C428.117 137.887 428.33 138.569 428.33 139.124C428.33 139.935 427.797 141.257 426.73 143.092ZM422.57 128.628C422.57 128.628 422.25 129.033 421.61 129.844C420.97 130.655 420.65 131.209 420.65 131.508L420.906 131.764C421.205 131.764 421.354 131.828 421.354 131.956C422.165 131.956 423.402 131.999 425.066 132.084C426.73 132.169 427.968 132.212 428.778 132.212C431.552 132.212 433.6 131.892 434.922 131.252C435.52 130.953 436.245 130.804 437.098 130.804C438.08 130.804 439.744 131.103 442.09 131.7C444.309 132.212 445.93 132.447 446.954 132.404C448.149 132.319 449.258 131.636 450.282 130.356C451.349 129.076 451.882 127.839 451.882 126.644L447.978 127.348C445.162 127.348 440.917 127.561 435.242 127.988C429.61 128.415 425.386 128.628 422.57 128.628Z" fill="#FFEA00"/>
<path d="M433.804 197.684C433.079 197.641 432.631 197.492 432.46 197.236C432.29 196.98 432.204 196.425 432.204 195.572V195.252C432.204 194.697 432.567 193.801 433.292 192.564C434.871 189.876 435.66 187.7 435.66 186.036C435.66 185.737 435.895 185.204 436.364 184.436C436.834 183.711 437.09 183.199 437.132 182.9C437.175 182.772 437.644 181.599 438.54 179.38C439.351 177.375 439.756 176.329 439.756 176.244C439.756 175.647 440.034 175.071 440.588 174.516C440.844 174.175 441.506 172.98 442.572 170.932C443.511 169.183 444.151 168.137 444.492 167.796C445.218 166.345 445.73 164.575 446.028 162.484C446.498 160.905 447.351 160.116 448.588 160.116C448.887 160.116 449.164 160.18 449.42 160.308C450.359 160.777 450.999 161.012 451.34 161.012C451.383 161.012 451.447 160.991 451.532 160.948H451.788L454.668 154.996C456.375 151.455 457.228 149.321 457.228 148.596C457.228 148.041 457.591 147.039 458.316 145.588C459.084 144.095 459.532 142.857 459.66 141.876C459.746 141.535 459.831 141.065 459.916 140.468C460.172 138.591 460.812 136.799 461.836 135.092C462.135 134.58 463.223 134.324 465.1 134.324C465.911 134.324 466.316 134.879 466.316 135.988C466.316 136.073 466.295 136.244 466.252 136.5V137.012C466.636 136.969 467.127 136.628 467.724 135.988C468.578 135.092 469.367 134.495 470.092 134.196C472.055 133.385 473.356 132.937 473.996 132.852C476.002 132.553 477.431 132.361 478.284 132.276L478.732 132.212C478.818 132.212 478.924 132.191 479.052 132.148H479.5C479.97 132.148 480.46 132.276 480.972 132.532C481.954 133.172 482.444 134.623 482.444 136.884C482.444 139.785 481.015 143.263 478.156 147.316C476.748 148.852 475.404 150.239 474.124 151.476C471.692 153.695 469.858 155.337 468.62 156.404C466.231 158.708 464.29 160.308 462.796 161.204C461.772 161.503 460.962 161.695 460.364 161.78C458.146 162.42 455.948 163.487 453.772 164.98C453.004 166.345 451.554 169.033 449.42 173.044C443.618 184.009 438.412 192.223 433.804 197.684ZM448.268 169.78C448.567 168.031 448.716 167.284 448.716 167.54C448.716 166.943 448.418 166.623 447.82 166.58C447.394 166.623 447.074 166.793 446.86 167.092C445.41 169.14 444.343 170.825 443.66 172.148C443.404 172.489 443.212 172.959 443.084 173.556C442.103 175.775 441.228 177.567 440.46 178.932C439.906 180.169 439.543 180.98 439.372 181.364C439.074 182.047 438.924 182.644 438.924 183.156C438.924 183.455 438.988 183.604 439.116 183.604C439.458 183.604 439.948 183.092 440.588 182.068C442.338 179.252 443.511 177.353 444.108 176.372L447.116 171.764C447.884 170.569 448.268 169.908 448.268 169.78ZM475.084 147.316C476.023 146.292 476.706 144.137 477.132 140.852C477.132 140.681 477.154 140.425 477.196 140.084V139.444C477.196 137.567 476.599 136.628 475.404 136.628C475.106 136.628 474.786 136.649 474.444 136.692L473.484 136.948C471.607 137.46 470.455 137.908 470.028 138.292C469.132 138.719 468.343 139.06 467.66 139.316C466.978 140.34 465.954 141.172 464.588 141.812L455.82 160.372C456.716 160.329 457.612 160.159 458.508 159.86C459.148 159.647 460.002 159.284 461.068 158.772L461.388 158.58C463.351 157.428 464.439 156.703 464.652 156.404C464.908 156.063 465.1 155.849 465.228 155.764C465.356 155.679 465.698 155.551 466.252 155.38C466.466 155.295 466.594 155.252 466.636 155.252C467.148 155.081 467.639 154.783 468.108 154.356C471.223 151.369 473.548 149.023 475.084 147.316Z" fill="#FFEA00"/>
<path d="M498.564 133.94C498.01 135.476 496.623 137.716 494.404 140.66C494.02 141.215 493.615 141.663 493.188 142.004C492.804 142.303 491.588 144.159 489.54 147.572C487.663 150.687 486.383 152.863 485.7 154.1C484.292 156.745 483.546 158.239 483.46 158.58C485.636 157.94 486.959 157.471 487.428 157.172C488.623 156.319 489.54 155.7 490.18 155.316C493.38 153.183 495.535 151.583 496.644 150.516C498.436 149.236 500.292 147.679 502.212 145.844C503.62 144.393 505.05 142.964 506.5 141.556C509.7 138.313 511.77 136.159 512.708 135.092C513.092 134.793 514.33 134.815 516.42 135.156C516.847 135.241 517.06 135.412 517.06 135.668C517.06 136.265 516.762 136.991 516.164 137.844C515.14 139.337 513.988 141.279 512.708 143.668L509.06 150.772C508.463 151.796 508.058 152.479 507.844 152.82C507.418 153.929 507.119 154.697 506.948 155.124C506.223 156.959 505.86 158.132 505.86 158.644C505.86 159.156 506.223 159.625 506.948 160.052H507.716C508.399 159.967 508.762 160.031 508.804 160.244C508.932 160.841 508.89 161.247 508.676 161.46C508.378 161.844 507.674 162.271 506.564 162.74C503.322 164.148 501.316 164.852 500.548 164.852C500.122 164.852 499.866 164.724 499.78 164.468C499.78 161.951 500.015 160.159 500.484 159.092C502.703 154.015 503.983 151.028 504.324 150.132C505.092 148.767 505.604 147.551 505.86 146.484C504.196 148.063 503.044 149.087 502.404 149.556C501.679 150.495 501.21 150.985 500.996 151.028C500.527 151.369 500.25 151.647 500.164 151.86C499.61 152.244 499.14 152.543 498.756 152.756C495.3 155.913 492.719 157.897 491.012 158.708C490.074 159.348 489.306 159.903 488.708 160.372C486.063 162.079 484.42 163.167 483.78 163.636C483.482 163.892 482.906 164.148 482.052 164.404C481.199 164.617 480.58 164.724 480.196 164.724C479.386 164.724 478.618 164.34 477.892 163.572C477.508 163.145 477.316 162.804 477.316 162.548C477.316 162.207 477.764 161.268 478.66 159.732C481.818 154.356 484.634 148.98 487.108 143.604C489.199 139.039 490.543 136.18 491.14 135.028C492.378 132.639 493.338 130.953 494.02 129.972C494.148 129.716 494.383 129.524 494.724 129.396L495.684 129.204C497.178 129.204 498.052 129.78 498.308 130.932C498.522 133.151 498.628 134.089 498.628 133.748C498.586 133.833 498.564 133.897 498.564 133.94Z" fill="#FFEA00"/>
<path d="M533.002 133.94C532.447 135.476 531.061 137.716 528.842 140.66C528.458 141.215 528.052 141.663 527.626 142.004C527.242 142.303 526.026 144.159 523.978 147.572C522.101 150.687 520.82 152.863 520.138 154.1C518.73 156.745 517.983 158.239 517.898 158.58C520.074 157.94 521.397 157.471 521.866 157.172C523.061 156.319 523.978 155.7 524.618 155.316C527.818 153.183 529.973 151.583 531.082 150.516C532.874 149.236 534.73 147.679 536.65 145.844C538.058 144.393 539.487 142.964 540.938 141.556C544.138 138.313 546.207 136.159 547.146 135.092C547.53 134.793 548.767 134.815 550.858 135.156C551.285 135.241 551.498 135.412 551.498 135.668C551.498 136.265 551.199 136.991 550.602 137.844C549.578 139.337 548.426 141.279 547.146 143.668L543.498 150.772C542.9 151.796 542.495 152.479 542.282 152.82C541.855 153.929 541.556 154.697 541.386 155.124C540.66 156.959 540.298 158.132 540.298 158.644C540.298 159.156 540.66 159.625 541.386 160.052H542.154C542.836 159.967 543.199 160.031 543.242 160.244C543.37 160.841 543.327 161.247 543.114 161.46C542.815 161.844 542.111 162.271 541.002 162.74C537.759 164.148 535.754 164.852 534.986 164.852C534.559 164.852 534.303 164.724 534.218 164.468C534.218 161.951 534.452 160.159 534.922 159.092C537.141 154.015 538.421 151.028 538.762 150.132C539.53 148.767 540.042 147.551 540.298 146.484C538.634 148.063 537.482 149.087 536.842 149.556C536.117 150.495 535.647 150.985 535.434 151.028C534.964 151.369 534.687 151.647 534.602 151.86C534.047 152.244 533.578 152.543 533.194 152.756C529.738 155.913 527.156 157.897 525.45 158.708C524.511 159.348 523.743 159.903 523.146 160.372C520.501 162.079 518.858 163.167 518.218 163.636C517.919 163.892 517.343 164.148 516.49 164.404C515.637 164.617 515.018 164.724 514.634 164.724C513.823 164.724 513.055 164.34 512.33 163.572C511.946 163.145 511.754 162.804 511.754 162.548C511.754 162.207 512.202 161.268 513.098 159.732C516.255 154.356 519.071 148.98 521.546 143.604C523.637 139.039 524.98 136.18 525.578 135.028C526.815 132.639 527.775 130.953 528.458 129.972C528.586 129.716 528.82 129.524 529.162 129.396L530.122 129.204C531.615 129.204 532.49 129.78 532.746 130.932C532.959 133.151 533.066 134.089 533.066 133.748C533.023 133.833 533.002 133.897 533.002 133.94ZM536.394 134.708V135.156L536.522 135.284C536.65 135.284 536.799 135.348 536.97 135.476C537.354 135.476 537.631 135.455 537.802 135.412L538.57 135.028C538.57 135.071 538.378 135.199 537.994 135.412C538.591 134.985 539.103 134.623 539.53 134.324C539.871 134.324 540.447 133.983 541.258 133.3C542.068 132.617 542.559 132.084 542.73 131.7C543.967 131.06 544.97 130.356 545.738 129.588C546.165 129.161 546.911 128.777 547.978 128.436C548.789 128.18 549.62 127.924 550.474 127.668C551.156 127.369 551.498 127.049 551.498 126.708C551.498 126.367 551.071 125.748 550.218 124.852C549.877 124.852 549.45 124.404 548.938 123.508L548.17 122.228C545.311 123.721 542.687 126.025 540.298 129.14C538.335 131.7 537.034 133.556 536.394 134.708Z" fill="#FFEA00"/>
</svg>
