<svg width="128" height="128" viewBox="0 0 128 128" fill="none" xmlns="http://www.w3.org/2000/svg">
<g clip-path="url(#clip0_111_617)">
<path d="M0 64V128H128V0H0V64ZM103.152 58.9013C106.405 59.712 108.88 61.1573 111.157 63.5147C112.336 64.7733 114.085 67.0667 114.224 67.6213C114.267 67.7813 108.699 71.5147 105.328 73.6107C105.205 73.6907 104.715 73.1627 104.171 72.352C102.517 69.952 100.795 68.9173 98.1547 68.736C94.272 68.4693 91.776 70.5013 91.7973 73.8933C91.762 74.7275 91.9498 75.556 92.3413 76.2933C93.1947 78.0587 94.784 79.12 99.7547 81.2693C108.923 85.216 112.843 87.8133 115.28 91.5093C118 95.632 118.613 102.219 116.763 107.115C114.736 112.437 109.696 116.053 102.603 117.248C100.411 117.637 95.2107 117.579 92.8533 117.152C87.712 116.235 82.8373 113.696 79.8293 110.363C78.6507 109.067 76.352 105.669 76.496 105.429C76.5547 105.344 77.0827 105.019 77.6693 104.677C78.2453 104.352 80.3947 103.109 82.4267 101.931L86.1067 99.7973L86.88 100.939C87.9573 102.581 90.3093 104.837 91.7333 105.589C95.8187 107.744 101.424 107.44 104.187 104.96C104.742 104.492 105.182 103.902 105.472 103.236C105.761 102.57 105.893 101.845 105.856 101.12C105.856 99.6373 105.669 98.9867 104.896 97.8667C103.904 96.448 101.872 95.2533 96.1013 92.7467C89.4987 89.904 86.656 88.1387 84.0533 85.3333C82.4289 83.482 81.2293 81.2975 80.5387 78.9333C80.0533 77.1253 79.9307 72.592 80.3147 70.768C81.6747 64.384 86.4907 59.9413 93.44 58.6187C95.696 58.192 100.939 58.352 103.152 58.9013ZM73.104 64.2453L73.1467 69.488H56.48V116.827H44.6933V69.488H28.0427V64.3467C28.0427 61.4987 28.1013 59.12 28.1813 59.0667C28.2453 58.9813 38.384 58.9387 50.672 58.96L73.0453 59.024L73.104 64.2453Z" fill="#FFEA00"/>
</g>
<defs>
<clipPath id="clip0_111_617">
<rect width="128" height="128" fill="white"/>
</clipPath>
</defs>
</svg>
